<?xml version="1.0" encoding="UTF-8"?>
<svg version="1.1" xmlns="http://www.w3.org/2000/svg" width="1024" height="1024">
<path d="M0 0 C337.92 0 675.84 0 1024 0 C1024 337.92 1024 675.84 1024 1024 C686.08 1024 348.16 1024 0 1024 C0 686.08 0 348.16 0 0 Z " fill="#FCFDFD" transform="translate(0,0)"/>
<path d="M0 0 C0.80034668 -0.0049649 1.60069336 -0.00992981 2.42529297 -0.01504517 C5.07479714 -0.02965783 7.72424143 -0.03646752 10.3737793 -0.04199219 C12.21599835 -0.04774466 14.05821738 -0.05350238 15.9004364 -0.05926514 C19.76484455 -0.06977277 23.62923192 -0.0756169 27.49365234 -0.07910156 C32.44008146 -0.08458383 37.38623497 -0.10860714 42.33257771 -0.13707352 C46.13904111 -0.15571829 49.94543838 -0.16090649 53.75194359 -0.16243744 C55.57516167 -0.16546066 57.39837869 -0.17347805 59.2215519 -0.18662262 C61.77551725 -0.20372061 64.32881277 -0.20179376 66.8828125 -0.1953125 C68.00755226 -0.20913467 68.00755226 -0.20913467 69.15501404 -0.22323608 C74.77421512 -0.1786757 78.84490874 1.08734826 83.03393555 4.87988281 C83.52120117 5.46769531 84.0084668 6.05550781 84.51049805 6.66113281 C85.01323242 7.24894531 85.5159668 7.83675781 86.03393555 8.44238281 C87.13549805 10.16113281 87.13549805 10.16113281 87.13549805 13.16113281 C88.39195129 13.15447098 89.64840454 13.14780914 90.94293213 13.14094543 C102.77343963 13.08017772 114.60391555 13.03518099 126.43454361 13.0056963 C132.51705674 12.99002844 138.59944405 12.9687695 144.68188477 12.93481445 C150.54980458 12.90226129 156.41760325 12.88428824 162.28560638 12.87650108 C164.52635353 12.87095033 166.76709392 12.86011131 169.00778961 12.84394264 C172.14197717 12.82222242 175.27566162 12.81916366 178.40991211 12.82055664 C179.3399556 12.80977081 180.26999908 12.79898499 181.22822571 12.78787231 C182.51121803 12.7940583 182.51121803 12.7940583 183.82012939 12.80036926 C184.56125095 12.79760388 185.30237251 12.7948385 186.0659523 12.79198933 C188.8162711 13.28256184 190.16248793 14.19537634 192.13549805 16.16113281 C192.62375355 18.19739914 192.62375355 18.19739914 192.6073761 20.57489014 C192.61117279 21.47762665 192.61496948 22.38036316 192.61888123 23.31045532 C192.60285355 24.29855194 192.58682587 25.28664856 192.5703125 26.3046875 C192.56895294 27.86855698 192.56895294 27.86855698 192.56756592 29.46401978 C192.56349627 31.73122002 192.55048028 33.99841755 192.52965736 36.26552582 C192.4985865 39.8552822 192.49465791 43.44411847 192.49858093 47.03399658 C192.50510945 57.24129989 192.46470616 67.44818817 192.39990234 77.65527344 C192.3621717 83.89644076 192.35835139 90.13690363 192.37492943 96.37815094 C192.37416548 98.7559955 192.36010439 101.13387463 192.33245277 103.51155853 C192.29413158 106.84183985 192.2986953 110.16958448 192.3125 113.5 C192.29039963 114.47999969 192.26829926 115.45999939 192.24552917 116.46969604 C192.3139616 121.57311314 192.8052787 124.4196178 196.46037292 128.12432861 C197.66563825 129.16006474 198.89091246 130.17299288 200.13549805 131.16113281 C201.34755231 132.24030148 202.55632593 133.32317598 203.76049805 134.41113281 C205.21485263 135.66575979 206.67374788 136.91513018 208.13549805 138.16113281 C209.12936523 139.00933594 210.12323242 139.85753906 211.1472168 140.73144531 C217.72574443 146.33246886 217.72574443 146.33246886 224.41674805 151.79785156 C225.41706055 152.59835937 226.41737305 153.39886719 227.44799805 154.22363281 C228.35163086 154.93648437 229.25526367 155.64933594 230.1862793 156.38378906 C231.15114258 157.26357422 231.15114258 157.26357422 232.13549805 158.16113281 C232.13549805 158.82113281 232.13549805 159.48113281 232.13549805 160.16113281 C184.94549805 160.16113281 137.75549805 160.16113281 89.13549805 160.16113281 C89.13549805 161.15113281 89.13549805 162.14113281 89.13549805 163.16113281 C135.99549805 163.16113281 182.85549805 163.16113281 231.13549805 163.16113281 C229.13549805 167.16113281 229.13549805 167.16113281 227.13549805 169.16113281 C224.74982262 169.40722847 224.74982262 169.40722847 221.69393921 169.40164185 C220.53845078 169.40439117 219.38296234 169.4071405 218.19245911 169.40997314 C216.91859848 169.40278259 215.64473785 169.39559204 214.33227539 169.38818359 C212.98224394 169.38761967 211.63221188 169.38793567 210.28218079 169.3890686 C206.61087529 169.38964386 202.93969973 169.37786173 199.26842451 169.36392069 C195.43405276 169.35144202 191.59967823 169.3502451 187.76528931 169.34786987 C180.5015122 169.34164666 173.23779509 169.32522451 165.97404444 169.30517089 C157.70572367 169.28283801 149.43740007 169.27182505 141.16905665 169.26178002 C124.15783571 169.24085898 107.14667322 169.20566671 90.13549805 169.16113281 C90.15828185 173.41232321 90.23557071 177.66081903 90.32299805 181.91113281 C90.32879883 183.11769531 90.33459961 184.32425781 90.34057617 185.56738281 C90.38408203 187.30761719 90.38408203 187.30761719 90.4284668 189.08300781 C90.44417725 190.15131836 90.4598877 191.21962891 90.47607422 192.3203125 C91.34560697 196.06628921 93.043302 197.01832938 96.13549805 199.16113281 C97.74979728 202.38973128 97.73120461 205.67106935 97.13549805 209.16113281 C95.399477 212.18621427 93.29969668 214.5790335 90.13549805 216.16113281 C86.05639998 216.54595338 83.84459932 216.60235138 80.32299805 214.41113281 C76.05400907 210.02017273 76.05789839 207.23506989 76.13549805 201.16113281 C75.07362778 201.17223587 74.01175751 201.18333893 72.91770935 201.19477844 C62.89829075 201.29624753 52.87897674 201.3711429 42.85916042 201.42019367 C37.70813477 201.44625933 32.55752475 201.48160223 27.40673828 201.53833008 C22.43354789 201.59275765 17.46075664 201.62257615 12.48729134 201.63551903 C10.59228293 201.64473961 8.69729576 201.66274557 6.80245781 201.6897831 C4.14273181 201.72621679 1.48464344 201.73107227 -1.17529297 201.72875977 C-2.34378784 201.75572433 -2.34378784 201.75572433 -3.53588867 201.78323364 C-8.36087523 201.73800467 -11.59723383 200.83918803 -15.34784698 197.7199049 C-22.49348438 190.37583499 -21.43950393 180.89589291 -21.39794922 171.31542969 C-21.40501355 169.60310627 -21.41376073 167.89078909 -21.42405701 166.17848206 C-21.44650153 161.54416601 -21.4436231 156.91019227 -21.43473554 152.27584267 C-21.42961522 148.40154514 -21.43692656 144.52731134 -21.44420761 140.65302038 C-21.46119047 131.51162456 -21.45765648 122.37039574 -21.44091797 113.22900391 C-21.42399113 103.80849545 -21.43984256 94.38845019 -21.47214085 84.96799231 C-21.49885518 76.86837515 -21.50610798 68.76890202 -21.49762577 60.66924524 C-21.49270281 55.8366381 -21.49487828 51.0043097 -21.51541328 46.17173767 C-21.53379985 41.62755808 -21.52777556 37.0840439 -21.50321388 32.53989983 C-21.49821574 30.87587247 -21.50166985 29.21179415 -21.51436234 27.54780769 C-21.62901788 11.22038356 -21.62901788 11.22038356 -15.86450195 5.16113281 C-10.76650587 0.4272793 -6.72484136 0.00994501 0 0 Z " fill="#3F9EB6" transform="translate(423.864501953125,316.8388671875)"/>
<path d="M0 0 C1.13066895 0.26296875 1.13066895 0.26296875 2.28417969 0.53125 C6.88022442 1.60233553 11.44137334 2.77786054 16 4 C16.73299316 4.19062012 17.46598633 4.38124023 18.22119141 4.57763672 C26.60288319 6.75782525 34.74020559 9.03514348 42.67578125 12.5546875 C46.21935107 14.09537003 49.80188254 15.49737463 53.40258789 16.89770508 C77.94048312 26.48989377 77.94048312 26.48989377 83.25 36.3125 C85.13441126 43.06497369 85.16446962 50.1910289 85.203125 57.16015625 C85.21013931 58.01512695 85.21715363 58.87009766 85.22438049 59.75097656 C85.24187315 62.52153822 85.24824061 65.291885 85.25 68.0625 C85.25067474 69.01518768 85.25134949 69.96787537 85.25204468 70.94943237 C85.22238908 97.4457399 82.70599703 123.07657494 77 149 C76.71312215 150.39314285 76.42661256 151.78636162 76.140625 153.1796875 C74.12298376 162.18293565 71.08022565 170.816455 68 179.5 C67.35865112 181.30960205 67.35865112 181.30960205 66.7043457 183.15576172 C64.4714392 189.32562362 62.09456368 195.21201979 59 201 C56.19118491 199.71278496 54.07211433 198.34136259 51.8359375 196.21484375 C51.27132813 195.68439453 50.70671875 195.15394531 50.125 194.60742188 C49.25875 193.78081055 49.25875 193.78081055 48.375 192.9375 C44.50673691 189.03429271 44.50673691 189.03429271 40 186 C40.74805193 181.01635673 42.59509597 176.49720376 44.375 171.8125 C45.01759181 170.08927381 45.65824365 168.36532286 46.296875 166.640625 C46.58401367 165.87008789 46.87115234 165.09955078 47.16699219 164.30566406 C48.63339709 160.24683409 49.90332913 156.17312127 51 152 C51.18272461 151.3085791 51.36544922 150.6171582 51.55371094 149.90478516 C58.11875593 124.88899357 61.17830232 100.73377133 61.1875 74.875 C61.18849701 74.13269135 61.18949402 73.39038269 61.19052124 72.62557983 C61.18911345 63.37885311 60.86849181 54.21260928 60 45 C58.75863281 44.59652344 57.51726562 44.19304687 56.23828125 43.77734375 C49.46655479 41.5201016 42.81591469 38.9444203 36.14648438 36.40429688 C-23.8653342 13.70233082 -94.10621789 8.27910622 -157 22 C-157.91305908 22.18949219 -158.82611816 22.37898438 -159.7668457 22.57421875 C-184.0964125 27.66781253 -207.72008756 34.86004378 -230 46 C-231.35855259 50.45052364 -231.14449137 55.06619991 -231.1328125 59.67578125 C-231.13376923 60.51860153 -231.13472595 61.36142181 -231.13571167 62.2297821 C-231.13639117 64.01590042 -231.1345529 65.80202122 -231.13037109 67.58813477 C-231.12509326 70.26519646 -231.1302853 72.94208464 -231.13671875 75.61914062 C-231.16115395 121.37405863 -220.79792875 166.13025473 -200 207 C-199.67 207.33 -199.34 207.66 -199 208 C-198.90161724 210.40217909 -198.86286522 212.78079876 -198.859375 215.18359375 C-198.84102076 216.68425965 -198.82144811 218.18491104 -198.80078125 219.68554688 C-198.77201921 222.04866509 -198.75000557 224.41086637 -198.74951172 226.77416992 C-198.79290713 240.15166946 -198.79290713 240.15166946 -193 252 C-188.17111383 256.43832844 -183.90000165 257.11931616 -177.54833984 257.02441406 C-166.69774717 256.91220524 -166.69774717 256.91220524 -162.625 260.51953125 C-160.02313771 263.25762112 -157.72597739 266.23426759 -155.42871094 269.22900391 C-153.12911094 272.07953336 -150.51565234 274.53714622 -147.8125 277 C-147.01066284 277.73150269 -147.01066284 277.73150269 -146.19262695 278.4777832 C-133.51864001 289.8250986 -119.57941795 299.29174512 -105 308 C-104.17129395 308.49790039 -103.34258789 308.99580078 -102.48876953 309.50878906 C-100.04570083 310.96429477 -97.58944016 312.39353399 -95.125 313.8125 C-94.38193604 314.25166748 -93.63887207 314.69083496 -92.87329102 315.14331055 C-92.17518311 315.53558838 -91.4770752 315.92786621 -90.7578125 316.33203125 C-90.1508252 316.67983643 -89.54383789 317.0276416 -88.91845703 317.38598633 C-83.72642715 319.04772661 -78.68787764 315.50689323 -74.19506836 313.20483398 C-73.2025708 312.68348877 -72.21007324 312.16214355 -71.1875 311.625 C-69.64751343 310.81687866 -69.64751343 310.81687866 -68.07641602 309.99243164 C-59.23179722 305.26834189 -51.02099557 300.00209067 -43 294 C-42.41492676 293.56896973 -41.82985352 293.13793945 -41.22705078 292.69384766 C-17.86654548 275.39290009 0.62792382 254.09136859 16.84765625 230.140625 C19 227 19 227 20 226 C21.92667507 225.91251793 23.85651861 225.89302666 25.78515625 225.90234375 C27.53989258 225.90717773 27.53989258 225.90717773 29.33007812 225.91210938 C30.56177734 225.92048828 31.79347656 225.92886719 33.0625 225.9375 C34.91584961 225.94426758 34.91584961 225.94426758 36.80664062 225.95117188 C39.87114117 225.96300392 42.93554721 225.97948827 46 226 C40.39994914 240.47962081 30.6922868 253.03848732 21 265 C20.52369141 265.59345215 20.04738281 266.1869043 19.55664062 266.79833984 C7.66496115 281.51198698 -5.87852258 295.60007431 -21 307 C-22.16096771 307.91172808 -23.32106032 308.82457113 -24.48046875 309.73828125 C-39.80296662 321.67190464 -56.35455253 331.87749244 -74 340 C-75.13695312 340.56460937 -76.27390625 341.12921875 -77.4453125 341.7109375 C-83.76599883 344.00305452 -88.02812233 343.62203201 -94.07421875 341.05078125 C-95.95503528 340.15822729 -97.82577969 339.24423005 -99.6875 338.3125 C-100.69063232 337.81919189 -101.69376465 337.32588379 -102.72729492 336.81762695 C-120.18133314 328.05976547 -135.94094657 317.38851822 -151 305 C-151.6192334 304.49645996 -152.2384668 303.99291992 -152.87646484 303.47412109 C-165.62742572 293.06552807 -177.77288005 281.59247888 -187.9375 268.6171875 C-190.16547393 265.79002361 -192.51685219 263.0942392 -194.875 260.375 C-215.45253777 235.68195468 -230.05923474 204.29811508 -240 174 C-240.38414062 172.8346875 -240.76828125 171.669375 -241.1640625 170.46875 C-244.60190804 159.17696466 -246.86069677 147.52325883 -249.34326172 135.9934082 C-249.73353363 134.21455174 -250.13658695 132.43829939 -250.56689453 130.66870117 C-255.21916228 111.43088531 -255.29355277 90.69795897 -255.3125 71 C-255.31590393 70.16749725 -255.31930786 69.33499451 -255.32281494 68.4772644 C-255.39714855 36.81623113 -255.39714855 36.81623113 -250.02734375 29.71875 C-244.78090659 25.27090347 -238.26834295 22.68179676 -232 20 C-231.20513184 19.65936523 -230.41026367 19.31873047 -229.59130859 18.96777344 C-195.13258526 4.39461931 -159.05269306 -4.04095016 -121.8515625 -7.71801758 C-120.05860079 -7.89531816 -118.26666107 -8.08365002 -116.4765625 -8.2878418 C-78.29860434 -12.36520655 -37.26153291 -8.95101225 0 0 Z " fill="#3674AB" transform="translate(597,266)"/>
<path d="M0 0 C1.1875 1.6875 1.1875 1.6875 2 4 C1.52961493 4.72566697 1.05922985 5.45133394 0.57459068 6.19899082 C-1.40920708 9.72793063 -1.37733653 12.09153 -1.38095093 16.12864685 C-1.3856309 16.83514014 -1.39031087 17.54163343 -1.39513266 18.2695356 C-1.40707481 20.63097327 -1.39762878 22.99182976 -1.38818359 25.35327148 C-1.39224969 27.04868915 -1.39759178 28.74410416 -1.40411377 30.43951416 C-1.41778971 35.04077996 -1.41248729 39.64184395 -1.40297651 44.24311328 C-1.39538014 49.05962845 -1.40242558 53.87612636 -1.40713501 58.69264221 C-1.41259314 66.7821869 -1.40539997 74.87164943 -1.39111328 82.96118164 C-1.37479218 92.31055841 -1.38007112 101.65973887 -1.3965925 111.00911087 C-1.41021228 119.03813081 -1.41212444 127.0670917 -1.40427649 135.09611946 C-1.39960198 139.89062947 -1.39896893 144.68504725 -1.40888596 149.47955132 C-1.41756029 153.98825123 -1.41152516 158.49669844 -1.39420319 163.00537109 C-1.39024061 164.65894718 -1.39136849 166.31254457 -1.39799118 167.96611214 C-1.40620616 170.22581715 -1.39588641 172.48471568 -1.38095093 174.74436951 C-1.37925431 176.63997447 -1.37925431 176.63997447 -1.37752342 178.57387447 C-0.85440181 183.32134235 0.51425425 186.74627896 4.19325256 189.85073853 C7.79852714 191.32696796 11.07525715 191.4200666 14.90795898 191.38818359 C15.68909058 191.39344055 16.47022217 191.39869751 17.27502441 191.40411377 C19.84891956 191.4172827 22.42219266 191.40858604 24.99609375 191.3984375 C26.79061501 191.40045934 28.58513547 191.40337169 30.37965393 191.40713501 C34.13802931 191.41155432 37.89619056 191.40514074 41.65454102 191.39111328 C46.46420337 191.37403395 51.273363 191.38385707 56.08300686 191.40183067 C59.78827171 191.41268967 63.49341811 191.40921226 67.1986866 191.4014473 C68.97165042 191.3994505 70.7446251 191.40188625 72.51757622 191.40888596 C74.99955452 191.41653397 77.48072788 191.40484934 79.96264648 191.38818359 C80.69062943 191.39425629 81.41861237 191.40032898 82.1686554 191.40658569 C86.84402748 191.34864107 90.09630771 190.59974039 94 188 C96.88580428 184.38944873 97.37037627 181.66756891 97.34057617 177.1081543 C97.34034958 175.94732834 97.34012299 174.78650238 97.33988953 173.59049988 C97.32440567 172.34762711 97.30892181 171.10475433 97.29296875 169.82421875 C97.28872391 168.54392288 97.28447906 167.26362701 97.28010559 165.9445343 C97.26869137 162.55286867 97.23925455 159.16159293 97.20599365 155.77008057 C97.17521835 152.30445631 97.16158439 148.83876861 97.14648438 145.37304688 C97.11342192 138.58186271 97.06322669 131.7909667 97 125 C92.24605427 139.26183719 94.38534248 154.9716431 94 170 C63.64 170 33.28 170 2 170 C2 119.51 2 69.02 2 17 C32.36 17 62.72 17 94 17 C94 39.77 94 62.54 94 86 C94.66 86.33 95.32 86.66 96 87 C95.34 87.99 94.68 88.98 94 90 C92.68 90 91.36 90 90 90 C84.51783305 102.57449485 79.24575747 115.21097475 74.27587891 127.99780273 C73.87675293 129.01302002 73.47762695 130.0282373 73.06640625 131.07421875 C72.71521729 131.97744873 72.36402832 132.88067871 72.00219727 133.8112793 C71 136 71 136 69 138 C68.62713867 137.02240723 68.25427734 136.04481445 67.87011719 135.03759766 C66.46939665 131.36573896 65.06761227 127.69428713 63.66552734 124.02294922 C63.06205278 122.44232863 62.45885609 120.86160191 61.85595703 119.28076172 C60.98285093 116.99157309 60.10876242 114.70276198 59.234375 112.4140625 C58.95235229 111.6745636 58.67032959 110.9350647 58.37976074 110.17315674 C56.54226424 105.3696704 54.64004445 100.59848524 52.63769531 95.86083984 C52 94 52 94 52 91 C43.585 91.495 43.585 91.495 35 92 C37.13128993 97.20665852 39.26318615 102.41306149 41.39648438 107.61889648 C42.11816982 109.38047955 42.83953711 111.14219301 43.56054688 112.90405273 C44.61238925 115.47416199 45.66538334 118.04379638 46.71875 120.61328125 C47.06768311 121.4656839 47.41661621 122.31808655 47.77612305 123.19631958 C49.59213643 127.62022112 51.43322656 132.03147804 53.31640625 136.42724609 C53.6880188 137.29721725 54.05963135 138.16718842 54.44250488 139.06352234 C55.15284454 140.72198705 55.86772704 142.37851551 56.58776855 144.03279114 C59 149.66839098 59 149.66839098 59 153 C65.93 153 72.86 153 80 153 C80.99 149.7 81.98 146.4 83 143 C83.82746667 140.78525505 84.68847507 138.5825331 85.59375 136.3984375 C86.30337891 134.67367187 86.30337891 134.67367187 87.02734375 132.9140625 C87.51332031 131.74617187 87.99929688 130.57828125 88.5 129.375 C89.46975728 127.02906197 90.43853273 124.68271779 91.40625 122.3359375 C91.85613281 121.24506836 92.30601562 120.15419922 92.76953125 119.03027344 C94.25267747 115.37773159 95.64699399 111.70248268 97 108 C97.66 108 98.32 108 99 108 C101.42836986 113.92354369 103.84861118 119.8503599 106.26318359 125.77954102 C107.08585023 127.79690928 107.91038663 129.81351611 108.73681641 131.8293457 C109.92320246 134.72409918 111.10287534 137.62150893 112.28125 140.51953125 C112.83903137 141.87435356 112.83903137 141.87435356 113.40808105 143.25654602 C113.74843384 144.09719101 114.08878662 144.937836 114.43945312 145.80395508 C114.89245789 146.91315056 114.89245789 146.91315056 115.35461426 148.04475403 C116 150 116 150 116 153 C122.93 153 129.86 153 137 153 C137 152.34 137 151.68 137 151 C144.26 151 151.52 151 159 151 C158.01 148.525 158.01 148.525 157 146 C148.585 145.505 148.585 145.505 140 145 C140.33 143.68 140.66 142.36 141 141 C166.74 140.67 192.48 140.34 219 140 C218.01 139.01 217.02 138.02 216 137 C215.25613932 134.69011685 214.57809297 132.35684056 214 130 C217.30501338 129.61842652 218.64902213 129.74750206 221.39453125 131.72265625 C222.19246094 132.49480469 222.99039063 133.26695312 223.8125 134.0625 C224.68390625 134.88621094 225.5553125 135.70992187 226.453125 136.55859375 C227.29359375 137.36425781 228.1340625 138.16992188 229 139 C233.91481078 143.45063421 238.97687186 147.58090034 244.3125 151.51953125 C244.869375 152.00808594 245.42625 152.49664062 246 153 C246 153.66 246 154.32 246 155 C198.81 155 151.62 155 103 155 C103 155.99 103 156.98 103 158 C149.86 158 196.72 158 245 158 C243 162 243 162 241 164 C238.61432457 164.24609566 238.61432457 164.24609566 235.55844116 164.24050903 C234.40295273 164.24325836 233.24746429 164.24600769 232.05696106 164.24884033 C230.78310043 164.24164978 229.50923981 164.23445923 228.19677734 164.22705078 C226.84674589 164.22648686 225.49671383 164.22680286 224.14668274 164.22793579 C220.47537724 164.22851105 216.80420169 164.21672892 213.13292646 164.20278788 C209.29855471 164.1903092 205.46418018 164.18911228 201.62979126 164.18673706 C194.36601415 164.18051385 187.10229705 164.1640917 179.8385464 164.14403808 C171.57022562 164.1217052 163.30190202 164.11069223 155.03355861 164.10064721 C138.02233766 164.07972617 121.01117517 164.0445339 104 164 C104.02278381 168.2511904 104.10007266 172.49968622 104.1875 176.75 C104.19330078 177.9565625 104.19910156 179.163125 104.20507812 180.40625 C104.24858398 182.14648438 104.24858398 182.14648438 104.29296875 183.921875 C104.3086792 184.99018555 104.32438965 186.05849609 104.34057617 187.15917969 C105.21010892 190.9051564 106.90780395 191.85719657 110 194 C111.61429923 197.22859847 111.59570657 200.50993653 111 204 C109.26397895 207.02508145 107.16419863 209.41790069 104 211 C99.92090194 211.38482057 97.70910127 211.44121857 94.1875 209.25 C89.91851103 204.85903991 89.92240034 202.07393708 90 196 C88.93812973 196.01110306 87.87625946 196.02220612 86.7822113 196.03364563 C76.7627927 196.13511472 66.74347869 196.21001009 56.72366238 196.25906086 C51.57263673 196.28512652 46.4220267 196.32046942 41.27124023 196.37719727 C36.29804984 196.43162483 31.32525859 196.46144334 26.35179329 196.47438622 C24.45678489 196.4836068 22.56179771 196.50161276 20.66695976 196.52865028 C18.00723376 196.56508398 15.34914539 196.56993946 12.68920898 196.56762695 C11.52071411 196.59459152 11.52071411 196.59459152 10.32861328 196.62210083 C5.50373546 196.57687288 2.26701806 195.67833802 -1.48315907 192.55852413 C-8.65134436 185.19335517 -7.55547771 175.69567379 -7.48583984 166.09082031 C-7.48798781 164.37201143 -7.49186862 162.65320397 -7.49734497 160.93440247 C-7.5070082 156.28378526 -7.49177498 151.63355412 -7.47143888 146.98298359 C-7.45383037 142.11217524 -7.45739364 137.24137813 -7.4581604 132.37054443 C-7.45628978 124.19634565 -7.43895448 116.02229575 -7.41162109 107.84814453 C-7.3801308 98.39587963 -7.36962649 88.94377746 -7.3710922 79.4914639 C-7.37244244 69.42428203 -7.35856846 59.35716291 -7.34019899 49.28999996 C-7.33593544 46.38922576 -7.33451654 43.48846168 -7.33372116 40.58768463 C-7.33171375 36.03384118 -7.31951619 31.48013458 -7.29938889 26.92633629 C-7.29354297 25.25418371 -7.29108733 23.58201538 -7.29224396 21.90985298 C-7.29322426 19.63004334 -7.28192569 17.35061796 -7.26742554 15.07086182 C-7.26407385 13.79442936 -7.26072216 12.5179969 -7.25726891 11.20288467 C-7.01607956 8.20018348 -6.58768104 6.5157688 -5 4 C-4.01 4 -3.02 4 -2 4 C-1.34 2.68 -0.68 1.36 0 0 Z " fill="#3C799D" transform="translate(410,322)"/>
<path d="M0 0 C32.01 0 64.02 0 97 0 C97 32.67 97 65.34 97 99 C73.735 99.495 73.735 99.495 50 100 C49.01 102.64 48.02 105.28 47 108 C47.93935646 107.9433744 47.93935646 107.9433744 48.89768982 107.88560486 C55.50015592 107.50533036 62.09946143 107.25152637 68.71020508 107.06616211 C71.16591915 106.98139357 73.62079401 106.86591282 76.07348633 106.7175293 C97.52998279 105.4533239 97.52998279 105.4533239 105.51611328 111.82470703 C109.79376607 115.81825202 113.71192844 120.14845615 117 125 C117 125.33 117 125.66 117 126 C90.93 126 64.86 126 38 126 C37.67 127.32 37.34 128.64 37 130 C38.20398438 129.96519531 39.40796875 129.93039062 40.6484375 129.89453125 C42.22394442 129.8663972 43.79946638 129.83909663 45.375 129.8125 C46.1690625 129.78736328 46.963125 129.76222656 47.78125 129.73632812 C49.85586148 129.70995595 51.93100865 129.84513538 54 130 C56 133 56 133 56 136 C48.74 136 41.48 136 34 136 C34 136.66 34 137.32 34 138 C27.07 138 20.14 138 13 138 C12.02417969 135.55464844 11.04835938 133.10929688 10.04296875 130.58984375 C9.08997316 128.20344763 8.13667569 125.81717231 7.18334961 123.4309082 C6.52450558 121.78129455 5.86597203 120.13155685 5.20776367 118.48168945 C4.25782945 116.10074154 3.30675382 113.72025222 2.35546875 111.33984375 C2.0647197 110.61039047 1.77397064 109.88093719 1.47441101 109.12937927 C0.13468619 105.77988655 -1.23666907 102.45947157 -2.7097168 99.16625977 C-4 96 -4 96 -4 93 C-4.66 93 -5.32 93 -6 93 C-6.11698242 93.69730225 -6.23396484 94.39460449 -6.35449219 95.11303711 C-7.06694003 98.29938194 -8.12629408 101.1555265 -9.328125 104.19140625 C-9.79863281 105.38443359 -10.26914062 106.57746094 -10.75390625 107.80664062 C-11.25260065 109.05859515 -11.75129858 110.31054827 -12.25 111.5625 C-12.72824219 112.77486328 -13.20648438 113.98722656 -13.69921875 115.23632812 C-16.71607599 122.86022887 -19.82555467 130.4404176 -23 138 C-29.93 138 -36.86 138 -44 138 C-52.38386951 117.35332402 -60.75403242 96.70222918 -69 76 C-63.06 76 -57.12 76 -51 76 C-45.39 90.85 -39.78 105.7 -34 121 C-31.20158911 117.26878548 -29.87385226 114.49008027 -28.2578125 110.1796875 C-28.00756317 109.52098663 -27.75731384 108.86228577 -27.4994812 108.18362427 C-26.70186392 106.08300357 -25.91258142 103.97940211 -25.125 101.875 C-21.80663697 93.0232821 -18.42525937 84.376967 -14 76 C-7.73 76 -1.46 76 5 76 C11.28382469 91.23799078 17.45890571 106.47358905 23 122 C24.81110064 119.28334905 25.88799265 116.978664 27.05859375 113.95703125 C27.44466797 112.96509766 27.83074219 111.97316406 28.22851562 110.95117188 C28.62748047 109.91541016 29.02644531 108.87964844 29.4375 107.8125 C29.83259766 106.79607422 30.22769531 105.77964844 30.63476562 104.73242188 C32.32082732 100.38681527 33.99256131 96.03693128 35.6171875 91.66796875 C37.60860836 86.38564053 39.8120558 81.20375918 42 76 C47.94 76 53.88 76 60 76 C56.04 85.9 56.04 85.9 52 96 C65.86 96 79.72 96 94 96 C94 65.64 94 35.28 94 4 C62.98 4 31.96 4 0 4 C0 2.68 0 1.36 0 0 Z " fill="#F9FBFA" transform="translate(513,337)"/>
<path d="M0 0 C1.20073906 -0.01029488 1.20073906 -0.01029488 2.42573547 -0.02079773 C5.06997455 -0.03908744 7.71362143 -0.03522468 10.35791016 -0.02954102 C12.19870191 -0.03410233 14.03949197 -0.03940776 15.88027954 -0.04542542 C19.73877885 -0.05436119 23.59707124 -0.05192875 27.45556641 -0.04199219 C32.39426912 -0.03051179 37.33225584 -0.05069723 42.27086449 -0.07990932 C46.07307455 -0.09827992 49.8751134 -0.09797698 53.67735672 -0.0922718 C55.49777861 -0.09211864 57.31821214 -0.09815883 59.13859177 -0.11056328 C61.68789934 -0.12548499 64.23588916 -0.11478771 66.78515625 -0.09765625 C67.90753944 -0.1121582 67.90753944 -0.1121582 69.05259705 -0.12695312 C74.18566077 -0.05492656 77.12711594 1.07980038 81.02197266 4.40405273 C84.27791756 8.39601244 84.43889031 12.07110677 84.36254883 17.04003906 C84.36320595 18.16767166 84.36320595 18.16767166 84.36387634 19.31808472 C84.36179431 21.79101976 84.33849161 24.26326808 84.31494141 26.73608398 C84.30934335 28.45529307 84.30507424 30.17450695 84.30207825 31.89372253 C84.29064592 36.40983384 84.26119271 40.92565385 84.22796631 45.44165039 C84.1972306 50.05342672 84.18356544 54.66525029 84.16845703 59.27709961 C84.13632139 68.31954502 84.0851446 77.36177461 84.02197266 86.40405273 C82.70197266 86.40405273 81.38197266 86.40405273 80.02197266 86.40405273 C80.02197266 63.63405273 80.02197266 40.86405273 80.02197266 17.40405273 C49.66197266 17.40405273 19.30197266 17.40405273 -11.97802734 17.40405273 C-11.97802734 67.89405273 -11.97802734 118.38405273 -11.97802734 170.40405273 C18.38197266 170.40405273 48.74197266 170.40405273 80.02197266 170.40405273 C80.02197266 157.53405273 80.02197266 144.66405273 80.02197266 131.40405273 C81.01197266 128.76405273 82.00197266 126.12405273 83.02197266 123.40405273 C83.35197266 123.40405273 83.68197266 123.40405273 84.02197266 123.40405273 C84.11483522 131.12333233 84.1858198 138.84255368 84.22922134 146.5622654 C84.25005688 150.14726174 84.27829916 153.73187468 84.32373047 157.31665039 C84.36733458 160.77909464 84.39114009 164.24117114 84.40148163 167.70386887 C84.41242086 169.66147756 84.44362394 171.61893921 84.47515869 173.57632446 C84.4776598 183.51699044 84.4776598 183.51699044 82.37255859 187.07348633 C78.15533495 191.25479261 74.13653482 192.7354453 68.20173645 192.82174683 C67.11211861 192.81499435 67.11211861 192.81499435 66.00048828 192.80810547 C65.21921066 192.81496872 64.43793304 192.82183197 63.63298035 192.8289032 C61.06454006 192.84712278 58.49671335 192.84334121 55.92822266 192.83764648 C54.13512983 192.84221019 52.34203875 192.84751632 50.5489502 192.85353088 C46.79655843 192.86245213 43.04437961 192.86004961 39.29199219 192.85009766 C34.49010229 192.83860136 29.68894704 192.8588344 24.88715363 192.88801479 C21.18617101 192.90638359 17.4853643 192.90608312 13.78434753 192.90037727 C12.01416492 192.90022418 10.24397029 192.90625833 8.47383118 192.91866875 C5.99657405 192.93359249 3.52067252 192.92289309 1.04345703 192.90576172 C-0.04616081 192.92026367 -0.04616081 192.92026367 -1.15779114 192.93505859 C-6.22963214 192.86183079 -9.1632427 191.73241117 -12.97802734 188.40405273 C-15.75300341 183.85675988 -16.35552359 180.44608638 -16.3657074 175.15515137 C-16.37109294 174.44780365 -16.37647847 173.74045594 -16.38202721 173.01167345 C-16.39627748 170.65335468 -16.38921063 168.29559955 -16.38208008 165.93725586 C-16.38778514 164.24168956 -16.39474993 162.5461271 -16.40287781 160.85057068 C-16.42080788 156.25350681 -16.4196413 151.65663384 -16.41393542 147.05954552 C-16.41084381 143.21996389 -16.41693562 139.38041894 -16.42297417 135.54084253 C-16.43701686 126.48300782 -16.43545981 117.42526744 -16.42407227 108.36743164 C-16.41258689 99.02537727 -16.42667433 89.68360983 -16.45346874 80.34159327 C-16.4756227 72.31679593 -16.48226393 64.29208868 -16.47639233 56.26726294 C-16.47302135 51.47608409 -16.47544738 46.68508926 -16.49264336 41.89393616 C-16.50810592 37.38927277 -16.50416471 32.8850348 -16.48533821 28.38038826 C-16.48165063 26.72842045 -16.48476576 25.07642117 -16.495224 23.42448235 C-16.5084246 21.16681602 -16.49689664 18.91056006 -16.47923279 16.6529541 C-16.4790235 15.39051628 -16.47881422 14.12807846 -16.47859859 12.82738495 C-15.77456626 8.01261272 -13.52007344 5.03271448 -10.22665405 1.55430603 C-6.89810622 -0.14836569 -3.65380244 -0.02186368 0 0 Z " fill="#EAF2F4" transform="translate(423.97802734375,321.595947265625)"/>
<path d="M0 0 C6.66373401 1.60733283 12.87096977 4.11772243 19.125 6.875 C19.8763623 7.20242188 20.62772461 7.52984375 21.40185547 7.8671875 C29.51698714 11.50469891 36.89471795 15.1163077 41.1875 23.25 C43.17964858 29.99265673 43.16438368 37.17553639 43.203125 44.16015625 C43.21364647 45.4426123 43.21364647 45.4426123 43.22438049 46.75097656 C43.24187315 49.52153822 43.24824061 52.291885 43.25 55.0625 C43.25067474 56.01518768 43.25134949 56.96787537 43.25204468 57.94943237 C43.22238908 84.4457399 40.70599703 110.07657494 35 136 C34.71312215 137.39314285 34.42661256 138.78636162 34.140625 140.1796875 C32.12298376 149.18293565 29.08022565 157.816455 26 166.5 C25.57243408 167.70640137 25.14486816 168.91280273 24.7043457 170.15576172 C22.4714392 176.32562362 20.09456368 182.21201979 17 188 C14.19118491 186.71278496 12.07211433 185.34136259 9.8359375 183.21484375 C9.27132812 182.68439453 8.70671875 182.15394531 8.125 181.60742188 C7.5475 181.05634766 6.97 180.50527344 6.375 179.9375 C2.50673691 176.03429271 2.50673691 176.03429271 -2 173 C-1.25194807 168.01635673 0.59509597 163.49720376 2.375 158.8125 C3.01759181 157.08927381 3.65824365 155.36532286 4.296875 153.640625 C4.58401367 152.87008789 4.87115234 152.09955078 5.16699219 151.30566406 C6.63339709 147.24683409 7.90332913 143.17312127 9 139 C9.18272461 138.3085791 9.36544922 137.6171582 9.55371094 136.90478516 C16.1169543 111.89585861 19.15635625 87.72373861 19.25 61.875 C19.25526703 61.13269135 19.26053406 60.39038269 19.26596069 59.62557983 C19.38643226 37.70066589 14.50107604 21.67742504 1.94140625 3.81640625 C0 1 0 1 0 0 Z " fill="#8BC662" transform="translate(639,279)"/>
<path d="M0 0 C1.084021 0.00523682 2.16804199 0.01047363 3.28491211 0.01586914 C4.45473633 0.0190918 5.62456055 0.02231445 6.82983398 0.02563477 C8.0615332 0.03401367 9.29323242 0.04239258 10.56225586 0.05102539 C12.41560547 0.05779297 12.41560547 0.05779297 14.30639648 0.06469727 C17.37089703 0.07652931 20.43530307 0.09301366 23.49975586 0.11352539 C17.899705 14.5931462 8.19204266 27.15201271 -1.50024414 39.11352539 C-1.97655273 39.70697754 -2.45286133 40.30042969 -2.94360352 40.91186523 C-14.83528299 55.62551237 -28.37876672 69.7135997 -43.50024414 81.11352539 C-44.66121185 82.02525347 -45.82130446 82.93809652 -46.98071289 83.85180664 C-62.30321076 95.78543003 -78.85479667 105.99101783 -96.50024414 114.11352539 C-97.63719727 114.67813477 -98.77415039 115.24274414 -99.94555664 115.82446289 C-106.53105219 118.21260963 -110.70484102 117.6765237 -116.96118164 114.91821289 C-118.94037773 113.95764306 -120.91165172 112.98060219 -122.87524414 111.98852539 C-123.85235352 111.51415039 -124.82946289 111.03977539 -125.83618164 110.55102539 C-132.22655247 107.40682698 -138.59367084 104.11014993 -144.50024414 100.11352539 C-144.50024414 99.78352539 -144.50024414 99.45352539 -144.50024414 99.11352539 C-143.23051758 99.01555664 -141.96079102 98.91758789 -140.65258789 98.81665039 C-115.2884708 96.69822506 -93.20928175 88.00495448 -72.50024414 73.11352539 C-71.84975098 72.6480127 -71.19925781 72.1825 -70.52905273 71.70288086 C-62.89659237 66.1994092 -55.53128437 60.52449501 -48.64086914 54.10180664 C-46.72625008 52.32344697 -44.76029046 50.65652601 -42.75024414 48.98852539 C-28.02893214 36.11482745 -16.55154812 20.35086196 -5.65258789 4.25415039 C-2.82502723 0.1282724 -2.82502723 0.1282724 0 0 Z " fill="#62B36C" transform="translate(619.500244140625,491.886474609375)"/>
<path d="M0 0 C1.47015036 -0.01147293 2.94026061 -0.0318501 4.41015625 -0.06152344 C22.56828811 -0.42779632 22.56828811 -0.42779632 29.45996094 6.04589844 C35.35640242 12.36586651 35.9380418 18.17443248 35.90869141 26.54516602 C35.92480469 27.44879883 35.94091797 28.35243164 35.95751953 29.28344727 C35.96287914 36.73329749 34.97354459 44.4227253 29.78369141 50.17016602 C29.32349609 50.70383789 28.86330078 51.23750977 28.38916016 51.78735352 C23.55625671 55.85162526 18.93794457 56.72589008 12.79150391 56.58813477 C12.06752411 56.58388992 11.34354431 56.57964508 10.59762573 56.57527161 C8.30508853 56.55859574 6.01345894 56.52096683 3.72119141 56.48266602 C2.15870418 56.46760473 0.59620306 56.45391886 -0.96630859 56.44165039 C-4.77943212 56.41129113 -8.59061504 56.35255522 -12.40380859 56.29516602 C-12.40380859 61.90516602 -12.40380859 67.51516602 -12.40380859 73.29516602 C-18.01380859 73.29516602 -23.62380859 73.29516602 -29.40380859 73.29516602 C-29.4944819 65.87111457 -29.56773758 58.44736998 -29.61105728 51.02288055 C-29.63185753 47.5746947 -29.66003396 44.12691008 -29.70556641 40.67895508 C-29.75768104 36.70732567 -29.77681648 32.73585394 -29.79443359 28.76391602 C-29.81507874 27.5365271 -29.83572388 26.30913818 -29.85699463 25.04455566 C-29.85883711 17.96671638 -29.26460248 13.29099806 -25.40380859 7.29516602 C-23.14990234 5.23657227 -23.14990234 5.23657227 -20.84130859 3.85766602 C-20.07689453 3.38458008 -19.31248047 2.91149414 -18.52490234 2.42407227 C-12.73794649 -0.65590977 -6.38105099 0.03462586 0 0 Z " fill="#365FA1" transform="translate(435.40380859375,644.704833984375)"/>
<path d="M0 0 C1.47015036 -0.01147293 2.94026061 -0.0318501 4.41015625 -0.06152344 C22.48173916 -0.42605052 22.48173916 -0.42605052 29.16479492 5.74316406 C35.33520818 12.73894024 35.02279325 19.00515448 35.09619141 27.98266602 C35.13744141 29.22467773 35.17869141 30.46668945 35.22119141 31.74633789 C35.2900532 39.86772617 34.25492469 45.2717416 28.59619141 51.29516602 C23.5242022 55.66218014 18.81092362 56.44189345 12.30322266 56.39282227 C11.24417976 56.39069984 11.24417976 56.39069984 10.16374207 56.38853455 C7.91201515 56.38294366 5.6603882 56.37039289 3.40869141 56.35766602 C1.88069805 56.35264983 0.35270314 56.34808713 -1.17529297 56.34399414 C-4.91820087 56.33382872 -8.66089302 56.3142517 -12.40380859 56.29516602 C-12.40380859 61.90516602 -12.40380859 67.51516602 -12.40380859 73.29516602 C-18.01380859 73.29516602 -23.62380859 73.29516602 -29.40380859 73.29516602 C-29.51723251 65.88840989 -29.60876523 58.48213642 -29.66286945 51.07469273 C-29.68885046 47.63426241 -29.7240324 44.19446226 -29.78100586 40.75439453 C-29.8462412 36.79019991 -29.8700843 32.8262513 -29.89208984 28.86157227 C-29.91789627 27.63934464 -29.9437027 26.417117 -29.97029114 25.15785217 C-29.97268141 17.81261439 -29.20717174 12.0899675 -24.40380859 6.29516602 C-16.68344603 0.17863101 -9.52970978 0.0517116 0 0 Z " fill="#89C465" transform="translate(663.40380859375,644.704833984375)"/>
<path d="M0 0 C5.28 0 10.56 0 16 0 C16 8.91 16 17.82 16 27 C30.19 27 44.38 27 59 27 C59 18.09 59 9.18 59 0 C64.61 0 70.22 0 76 0 C76 22.77 76 45.54 76 69 C70.06 69 64.12 69 58 69 C58 59.76 58 50.52 58 41 C44.14 41 30.28 41 16 41 C16 49.91 16 58.82 16 68 C10.72 68 5.44 68 0 68 C0 45.56 0 23.12 0 0 Z " fill="#3E4D95" transform="translate(315,632)"/>
<path d="M0 0 C5.38937415 -0.07464507 10.77844152 -0.12883434 16.16821289 -0.16479492 C17.99834441 -0.17979997 19.82844046 -0.20021059 21.65844727 -0.22631836 C24.30233558 -0.26306906 26.94574492 -0.27980937 29.58984375 -0.29296875 C30.79978249 -0.31619453 30.79978249 -0.31619453 32.03416443 -0.33988953 C38.06841441 -0.34164221 44.85420083 0.27681711 49.59580994 4.38142395 C55.63063506 11.38054177 55.37255564 17.8156019 55.37060547 26.64404297 C55.37497269 28.86113658 55.41129628 31.07622783 55.44921875 33.29296875 C55.45508894 34.71353491 55.45905698 36.13411046 55.4609375 37.5546875 C55.46915527 38.83843262 55.47737305 40.12217773 55.48583984 41.44482422 C54.9141722 45.62805244 53.63331958 47.73763275 51 51 C43.28882592 56.82272328 36.04623151 56.28345385 26.83227539 56.35009766 C25.16123483 56.36661215 23.4902636 56.39384275 21.81958008 56.43212891 C4.90917775 56.81717915 4.90917775 56.81717915 -0.67114258 52.328125 C-5.00833286 47.99332523 -7.27157425 44.11582661 -7.5625 37.875 C-7.23267072 31.90142523 -4.8257036 28.64758618 -0.4375 24.6875 C3.85304292 21.71712413 7.70984519 21.86676013 12.73046875 21.90234375 C13.85609978 21.90446617 13.85609978 21.90446617 15.00447083 21.90663147 C17.3988546 21.9122244 19.79314453 21.92477556 22.1875 21.9375 C23.81184761 21.94251592 25.43619668 21.94707866 27.06054688 21.95117188 C31.04040069 21.96219152 35.02018444 21.97945127 39 22 C38.40138258 19.64828869 37.73075648 17.3140622 37 15 C33.89008604 13.44504302 30.56655951 13.75923044 27.1484375 13.68359375 C26.37440582 13.66281265 25.60037415 13.64203156 24.80288696 13.62062073 C22.32701608 13.55516552 19.85103798 13.49625913 17.375 13.4375 C15.69790552 13.39431093 14.02082193 13.35069652 12.34375 13.30664062 C8.22927692 13.19948829 4.11469586 13.09820955 0 13 C0 8.71 0 4.42 0 0 Z " fill="#6EB474" transform="translate(565,645)"/>
<path d="M0 0 C1.1875 1.6875 1.1875 1.6875 2 4 C1.52961493 4.72566697 1.05922985 5.45133394 0.57459068 6.19899082 C-1.40920708 9.72793063 -1.37733653 12.09153 -1.38095093 16.12864685 C-1.3856309 16.83514014 -1.39031087 17.54163343 -1.39513266 18.2695356 C-1.40707481 20.63097327 -1.39762878 22.99182976 -1.38818359 25.35327148 C-1.39224969 27.04868915 -1.39759178 28.74410416 -1.40411377 30.43951416 C-1.41778971 35.04077996 -1.41248729 39.64184395 -1.40297651 44.24311328 C-1.39538014 49.05962845 -1.40242558 53.87612636 -1.40713501 58.69264221 C-1.41259314 66.7821869 -1.40539997 74.87164943 -1.39111328 82.96118164 C-1.37479218 92.31055841 -1.38007112 101.65973887 -1.3965925 111.00911087 C-1.41021228 119.03813081 -1.41212444 127.0670917 -1.40427649 135.09611946 C-1.39960198 139.89062947 -1.39896893 144.68504725 -1.40888596 149.47955132 C-1.41756029 153.98825123 -1.41152516 158.49669844 -1.39420319 163.00537109 C-1.39024061 164.65894718 -1.39136849 166.31254457 -1.39799118 167.96611214 C-1.40620616 170.22581715 -1.39588641 172.48471568 -1.38095093 174.74436951 C-1.37925431 176.63997447 -1.37925431 176.63997447 -1.37752342 178.57387447 C-0.85440181 183.32134235 0.51425425 186.74627896 4.19325256 189.85073853 C7.79852714 191.32696796 11.07525715 191.4200666 14.90795898 191.38818359 C15.68909058 191.39344055 16.47022217 191.39869751 17.27502441 191.40411377 C19.84891956 191.4172827 22.42219266 191.40858604 24.99609375 191.3984375 C26.79061501 191.40045934 28.58513547 191.40337169 30.37965393 191.40713501 C34.13802931 191.41155432 37.89619056 191.40514074 41.65454102 191.39111328 C46.46420337 191.37403395 51.273363 191.38385707 56.08300686 191.40183067 C59.78827171 191.41268967 63.49341811 191.40921226 67.1986866 191.4014473 C68.97165042 191.3994505 70.7446251 191.40188625 72.51757622 191.40888596 C74.99955452 191.41653397 77.48072788 191.40484934 79.96264648 191.38818359 C80.69062943 191.39425629 81.41861237 191.40032898 82.1686554 191.40658569 C86.84170375 191.34866987 90.03965053 190.4810159 94 188 C98.92132776 181.91829228 98.59022373 175.7730736 98.625 168.1875 C98.65042672 165.93087889 98.68386378 163.67432913 98.7265625 161.41796875 C98.73252441 160.42563232 98.73848633 159.4332959 98.74462891 158.41088867 C99 156 99 156 101 154 C101.309375 155.2065625 101.309375 155.2065625 101.625 156.4375 C102.07875 157.283125 102.5325 158.12875 103 159 C106.05272465 159.89830839 106.05272465 159.89830839 109 160 C109 159.34 109 158.68 109 158 C153.88 158 198.76 158 245 158 C243 162 243 162 241 164 C238.61432457 164.24609566 238.61432457 164.24609566 235.55844116 164.24050903 C234.40295273 164.24325836 233.24746429 164.24600769 232.05696106 164.24884033 C230.78310043 164.24164978 229.50923981 164.23445923 228.19677734 164.22705078 C226.84674589 164.22648686 225.49671383 164.22680286 224.14668274 164.22793579 C220.47537724 164.22851105 216.80420169 164.21672892 213.13292646 164.20278788 C209.29855471 164.1903092 205.46418018 164.18911228 201.62979126 164.18673706 C194.36601415 164.18051385 187.10229705 164.1640917 179.8385464 164.14403808 C171.57022562 164.1217052 163.30190202 164.11069223 155.03355861 164.10064721 C138.02233766 164.07972617 121.01117517 164.0445339 104 164 C104.02278381 168.2511904 104.10007266 172.49968622 104.1875 176.75 C104.19330078 177.9565625 104.19910156 179.163125 104.20507812 180.40625 C104.24858398 182.14648438 104.24858398 182.14648438 104.29296875 183.921875 C104.3086792 184.99018555 104.32438965 186.05849609 104.34057617 187.15917969 C105.21010892 190.9051564 106.90780395 191.85719657 110 194 C111.61429923 197.22859847 111.59570657 200.50993653 111 204 C109.26397895 207.02508145 107.16419863 209.41790069 104 211 C99.92090194 211.38482057 97.70910127 211.44121857 94.1875 209.25 C89.91851103 204.85903991 89.92240034 202.07393708 90 196 C88.93812973 196.01110306 87.87625946 196.02220612 86.7822113 196.03364563 C76.7627927 196.13511472 66.74347869 196.21001009 56.72366238 196.25906086 C51.57263673 196.28512652 46.4220267 196.32046942 41.27124023 196.37719727 C36.29804984 196.43162483 31.32525859 196.46144334 26.35179329 196.47438622 C24.45678489 196.4836068 22.56179771 196.50161276 20.66695976 196.52865028 C18.00723376 196.56508398 15.34914539 196.56993946 12.68920898 196.56762695 C11.52071411 196.59459152 11.52071411 196.59459152 10.32861328 196.62210083 C5.50373546 196.57687288 2.26701806 195.67833802 -1.48315907 192.55852413 C-8.65134436 185.19335517 -7.55547771 175.69567379 -7.48583984 166.09082031 C-7.48798781 164.37201143 -7.49186862 162.65320397 -7.49734497 160.93440247 C-7.5070082 156.28378526 -7.49177498 151.63355412 -7.47143888 146.98298359 C-7.45383037 142.11217524 -7.45739364 137.24137813 -7.4581604 132.37054443 C-7.45628978 124.19634565 -7.43895448 116.02229575 -7.41162109 107.84814453 C-7.3801308 98.39587963 -7.36962649 88.94377746 -7.3710922 79.4914639 C-7.37244244 69.42428203 -7.35856846 59.35716291 -7.34019899 49.28999996 C-7.33593544 46.38922576 -7.33451654 43.48846168 -7.33372116 40.58768463 C-7.33171375 36.03384118 -7.31951619 31.48013458 -7.29938889 26.92633629 C-7.29354297 25.25418371 -7.29108733 23.58201538 -7.29224396 21.90985298 C-7.29322426 19.63004334 -7.28192569 17.35061796 -7.26742554 15.07086182 C-7.26407385 13.79442936 -7.26072216 12.5179969 -7.25726891 11.20288467 C-7.01607956 8.20018348 -6.58768104 6.5157688 -5 4 C-4.01 4 -3.02 4 -2 4 C-1.34 2.68 -0.68 1.36 0 0 Z " fill="#31589D" transform="translate(410,322)"/>
<path d="M0 0 C5.61 0 11.22 0 17 0 C17.01981934 1.49893799 17.03963867 2.99787598 17.06005859 4.54223633 C17.13602939 10.09416744 17.22475997 15.64583353 17.31738281 21.19750977 C17.35570782 23.60207901 17.39055441 26.00670628 17.421875 28.41137695 C17.46744882 31.86430628 17.5254563 35.3168349 17.5859375 38.76953125 C17.59748871 39.84773636 17.60903992 40.92594147 17.62094116 42.03681946 C17.64081085 43.03763046 17.66068054 44.03844147 17.68115234 45.06958008 C17.69447601 45.95116287 17.70779968 46.83274567 17.7215271 47.74104309 C17.863101 50.2807783 17.863101 50.2807783 20 53 C22.051625 53.47488699 22.051625 53.47488699 24.44970703 53.43237305 C25.37051056 53.45216721 26.29131409 53.47196136 27.24002075 53.49235535 C28.23589203 53.49874527 29.23176331 53.50513519 30.2578125 53.51171875 C31.78509476 53.53864555 31.78509476 53.53864555 33.3432312 53.56611633 C36.60377832 53.62041347 39.86417748 53.65417738 43.125 53.6875 C45.33205193 53.72065592 47.53908429 53.75514394 49.74609375 53.79101562 C55.16395603 53.87615116 60.58177294 53.94286968 66 54 C66 58.95 66 63.9 66 69 C59.38388721 69.14942576 52.76877783 69.25772396 46.15136719 69.32958984 C43.90509915 69.35957878 41.65894638 69.40038448 39.41308594 69.45263672 C14.82066814 70.01006486 14.82066814 70.01006486 6 63 C1.6465107 58.5588236 -0.25683171 52.77891626 -0.22705078 46.65893555 C-0.22689972 45.6182341 -0.22674866 44.57753265 -0.22659302 43.5052948 C-0.21110916 41.83784966 -0.21110916 41.83784966 -0.1953125 40.13671875 C-0.1924826 38.98959915 -0.18965271 37.84247955 -0.18673706 36.66059875 C-0.17555697 33.00279232 -0.15045595 29.34523222 -0.125 25.6875 C-0.11496741 23.20508167 -0.10584205 20.72265949 -0.09765625 18.24023438 C-0.07562467 12.16006158 -0.04110935 6.08007253 0 0 Z " fill="#66AC74" transform="translate(485,632)"/>
<path d="M0 0 C12.96926342 -0.06945682 25.93848272 -0.12278939 38.90789413 -0.15543652 C44.92987377 -0.1711041 50.95172632 -0.19236254 56.97363281 -0.22631836 C62.78319806 -0.25887249 68.59264094 -0.27684478 74.40229034 -0.28463173 C76.620709 -0.29018231 78.83912082 -0.30102099 81.05748749 -0.31719017 C84.16054349 -0.3389117 87.26309136 -0.3419691 90.36621094 -0.34057617 C91.28690369 -0.351362 92.20759644 -0.36214783 93.15618896 -0.3732605 C94.00310303 -0.36913651 94.85001709 -0.36501251 95.72259521 -0.36076355 C96.45634243 -0.36352893 97.19008965 -0.36629431 97.94607162 -0.36914349 C100.6863315 0.12335133 102.03260773 1.04248007 104 3 C104.4882555 5.03626633 104.4882555 5.03626633 104.47187805 7.41375732 C104.47567474 8.31649384 104.47947144 9.21923035 104.48338318 10.14932251 C104.4673555 11.13741913 104.45132782 12.12551575 104.43481445 13.14355469 C104.43390808 14.18613434 104.43300171 15.22871399 104.43206787 16.30288696 C104.42799822 18.57008721 104.41498224 20.83728474 104.39415932 23.10439301 C104.36308846 26.69414939 104.35915986 30.28298565 104.36308289 33.87286377 C104.3696114 44.08016708 104.32920812 54.28705536 104.2644043 64.49414062 C104.22667365 70.73530795 104.22285334 76.97577082 104.23943138 83.21701813 C104.23866743 85.59486269 104.22460634 87.97274182 104.19695473 90.35042572 C104.15863354 93.68070703 104.16319725 97.00845167 104.17700195 100.33886719 C104.14385139 101.80886673 104.14385139 101.80886673 104.11003113 103.30856323 C104.1792103 108.46766932 104.69392414 111.27968664 108.39909363 115.01397705 C109.58401761 116.02757659 110.78313848 117.02497338 112 118 C113.33333333 119.33333333 114.66666667 120.66666667 116 122 C114.515 122.495 114.515 122.495 113 123 C113.33 124.65 113.66 126.3 114 128 C112.95541681 127.12848385 111.91453593 126.25253033 110.875 125.375 C110.29492188 124.88773437 109.71484375 124.40046875 109.1171875 123.8984375 C107 122 107 122 104.62890625 118.93164062 C100.90248747 115.22070373 97.31963711 115.26147652 92.23953247 115.16775513 C91.11118988 115.17684906 89.98284729 115.18594299 88.8203125 115.1953125 C87.06846146 115.17475296 87.06846146 115.17475296 85.28121948 115.15377808 C81.56208781 115.11647819 77.84429219 115.12019347 74.125 115.125 C71.59893746 115.10687346 69.07289261 115.08607093 66.546875 115.0625 C60.36445242 115.01064873 54.18262006 114.99244026 48 115 C48.4979837 111.26512223 48.87491756 109.18762365 51 106 C66.51 106 82.02 106 98 106 C98 73.33 98 40.66 98 7 C78.33018626 7.03949353 78.33018626 7.03949353 58.66040039 7.09008789 C56.18115278 7.09301051 53.70190469 7.09555825 51.22265625 7.09765625 C49.95160034 7.10277222 48.68054443 7.10788818 47.37097168 7.11315918 C40.82033512 7.11379895 34.49404902 6.85848926 28 6 C27.34 6 26.68 6 26 6 C24.66216607 5.68521554 23.32796291 5.35412344 22 5 C22 4.01 22 3.02 22 2 C14.74 1.67 7.48 1.34 0 1 C0 0.67 0 0.34 0 0 Z " fill="#47A4B0" transform="translate(512,330)"/>
<path d="M0 0 C3.30501338 -0.38157348 4.64902213 -0.25249794 7.39453125 1.72265625 C8.19246094 2.49480469 8.99039063 3.26695312 9.8125 4.0625 C10.68390625 4.88621094 11.5553125 5.70992188 12.453125 6.55859375 C13.71382812 7.76708984 13.71382812 7.76708984 15 9 C19.91481078 13.45063421 24.97687186 17.58090034 30.3125 21.51953125 C30.869375 22.00808594 31.42625 22.49664062 32 23 C32 23.66 32 24.32 32 25 C-12.88 25 -57.76 25 -104 25 C-104 24.67 -104 24.34 -104 24 C-102.35 24 -100.7 24 -99 24 C-98.67 22.68 -98.34 21.36 -98 20 C-98 20.99 -98 21.98 -98 23 C-91.07 23 -84.14 23 -77 23 C-77 22.34 -77 21.68 -77 21 C-69.74 21 -62.48 21 -55 21 C-55.66 19.35 -56.32 17.7 -57 16 C-62.61 15.67 -68.22 15.34 -74 15 C-73.67 13.68 -73.34 12.36 -73 11 C-47.26 10.67 -21.52 10.34 5 10 C4.01 9.01 3.02 8.02 2 7 C1.25613932 4.69011685 0.57809297 2.35684056 0 0 Z " fill="#3691C1" transform="translate(624,452)"/>
<path d="M0 0 C0.33 0 0.66 0 1 0 C1.09286256 7.7192796 1.16384714 15.43850095 1.20724869 23.15821266 C1.22808423 26.74320901 1.25632651 30.32782194 1.30175781 33.91259766 C1.34536192 37.3750419 1.36916743 40.83711841 1.37950897 44.29981613 C1.39044821 46.25742482 1.42165128 48.21488648 1.45318604 50.17227173 C1.45568715 60.11293771 1.45568715 60.11293771 -0.64941406 63.66943359 C-4.89867001 67.88249937 -8.90581065 69.33750214 -14.8868866 69.3732605 C-15.99064384 69.35708176 -15.99064384 69.35708176 -17.11669922 69.34057617 C-18.30307228 69.34123329 -18.30307228 69.34123329 -19.51341248 69.34190369 C-22.11076097 69.33982448 -24.70745268 69.31653503 -27.3046875 69.29296875 C-29.11214851 69.2873697 -30.9196141 69.28310106 -32.7270813 69.28010559 C-37.47168671 69.26868118 -42.21601422 69.23923477 -46.96051025 69.20599365 C-51.8069686 69.17524085 -56.65347209 69.16158913 -61.5 69.14648438 C-71.00012173 69.1143627 -80.5000377 69.06319551 -90 69 C-90 68.67 -90 68.34 -90 68 C-76.14 67.67 -62.28 67.34 -48 67 C-50.31 66.01 -52.62 65.02 -55 64 C-57.48038907 60.2794164 -57.46337203 58.40203429 -57 54 C-55.0625 51.75 -55.0625 51.75 -53 50 C-52.67 49.01 -52.34 48.02 -52 47 C-35.83 47 -19.66 47 -3 47 C-3.11832173 34.52519075 -3.11832173 34.52519075 -3.27026367 22.05078125 C-3.27903648 20.4713604 -3.28667853 18.89193269 -3.29296875 17.3125 C-3.3159906 16.11077148 -3.3159906 16.11077148 -3.33947754 14.88476562 C-3.34205075 9.27173823 -2.2347885 5.15522146 0 0 Z " fill="#F7F8FA" transform="translate(507,445)"/>
<path d="M0 0 C0.33 0 0.66 0 1 0 C1.33 41.58 1.66 83.16 2 126 C16.19 126.33 30.38 126.66 45 127 C44 131 44 131 42.4375 132.3125 C40.67213195 134.07314208 40.67213195 134.07314208 40.5625 137.4375 C40.71269985 140.99430731 40.71269985 140.99430731 42.6875 143.375 C45.19118187 145.13434402 46.98200506 145.66466723 50 146 C49.67 146.66 49.34 147.32 49 148 C42.82532414 148.09898364 36.65111157 148.1715236 30.47583008 148.21972656 C28.37581333 148.23982397 26.27585242 148.26710666 24.17602539 148.30175781 C21.15497042 148.3503577 18.13465623 148.37298762 15.11328125 148.390625 C13.70832146 148.42159271 13.70832146 148.42159271 12.27497864 148.45318604 C7.98453708 148.45465815 5.64983707 148.40211027 1.93041992 146.10058594 C-1.13017357 142.77020192 -1.12536894 140.8529878 -1.12698364 136.41331482 C-1.12980347 135.22561493 -1.13262329 134.03791504 -1.13552856 132.81422424 C-1.13350433 131.50453171 -1.1314801 130.19483917 -1.12939453 128.84545898 C-1.13074897 127.45764113 -1.13252914 126.06982364 -1.13470459 124.68200684 C-1.13927346 120.90737619 -1.13749171 117.1327728 -1.1343255 113.35814166 C-1.1317996 109.41479082 -1.13414004 105.47144236 -1.13571167 101.52809143 C-1.13753247 94.90617451 -1.13512916 88.28426874 -1.13037109 81.66235352 C-1.1249264 73.99609213 -1.12669299 66.32985732 -1.1321975 58.66359657 C-1.13672848 52.09119356 -1.13737932 45.51879857 -1.13475883 38.9463945 C-1.13319626 35.01666678 -1.13300178 31.08695158 -1.13629532 27.15722466 C-1.1391739 23.46451186 -1.1371986 19.77183351 -1.13140106 16.07912445 C-1.12943786 14.06949919 -1.13242733 12.05987102 -1.13552856 10.05024719 C-1.13270874 8.86536713 -1.12988892 7.68048706 -1.12698364 6.45970154 C-1.12660662 5.42343848 -1.12622959 4.38717543 -1.12584114 3.31951046 C-1 1 -1 1 0 0 Z " fill="#FCFCFD" transform="translate(410,365)"/>
<path d="M0 0 C1.08474609 -0.02384766 2.16949219 -0.04769531 3.28710938 -0.07226562 C8.05010423 -0.06348321 11.15185762 0.01324118 15.28125 2.50390625 C17.76532723 6.76932833 17.762469 10.21021598 17.625 15.0625 C17.63595703 15.90425781 17.64691406 16.74601563 17.65820312 17.61328125 C17.6091943 21.76269499 17.40715909 24.01555632 15.15234375 27.59375 C11.71061917 30.83604755 9.60541042 30.68185939 4.9609375 30.66015625 C3.74921875 30.65693359 2.5375 30.65371094 1.2890625 30.65039062 C0.01804687 30.64201172 -1.25296875 30.63363281 -2.5625 30.625 C-3.84125 30.62048828 -5.12 30.61597656 -6.4375 30.61132812 C-9.60421292 30.59951203 -12.77083356 30.58303815 -15.9375 30.5625 C-16.05361395 26.31272954 -16.12472349 22.06336663 -16.1875 17.8125 C-16.22101563 16.6059375 -16.25453125 15.399375 -16.2890625 14.15625 C-16.30195313 12.99609375 -16.31484375 11.8359375 -16.328125 10.640625 C-16.34907227 9.57231445 -16.37001953 8.50400391 -16.39160156 7.40332031 C-15.9375 4.5625 -15.9375 4.5625 -14.25463867 2.21801758 C-9.97615513 -0.83881488 -5.08328966 -0.05116396 0 0 Z " fill="#F4F7F9" transform="translate(437.9375,657.4375)"/>
<path d="M0 0 C1.00998047 0.00064453 2.01996094 0.00128906 3.06054688 0.00195312 C4.64125977 0.02612305 4.64125977 0.02612305 6.25390625 0.05078125 C7.82881836 0.04594727 7.82881836 0.04594727 9.43554688 0.04101562 C18.2811166 0.10303045 18.2811166 0.10303045 21.81640625 2.36328125 C23.75484677 6.2401623 23.13179513 10.97337648 23.19140625 15.23828125 C23.22878906 16.24503906 23.26617188 17.25179687 23.3046875 18.2890625 C23.31628906 19.25972656 23.32789063 20.23039063 23.33984375 21.23046875 C23.35966309 22.11847168 23.37948242 23.00647461 23.39990234 23.92138672 C22.81640625 26.36328125 22.81640625 26.36328125 20.66967773 28.65966797 C17.33525679 30.65056292 15.49524671 30.82985939 11.640625 30.75390625 C10.48369141 30.74101563 9.32675781 30.728125 8.13476562 30.71484375 C6.93658203 30.68132813 5.73839844 30.6478125 4.50390625 30.61328125 C2.67762695 30.58621094 2.67762695 30.58621094 0.81445312 30.55859375 C-2.18569797 30.51153256 -5.18424264 30.44579435 -8.18359375 30.36328125 C-8.27049628 25.92590413 -8.32395301 21.48874491 -8.37109375 17.05078125 C-8.39623047 15.78814453 -8.42136719 14.52550781 -8.44726562 13.22460938 C-8.45693359 12.01611328 -8.46660156 10.80761719 -8.4765625 9.5625 C-8.50012817 7.88933716 -8.50012817 7.88933716 -8.52416992 6.18237305 C-8.18359375 3.36328125 -8.18359375 3.36328125 -6.98925781 1.49853516 C-4.55634277 -0.03108288 -2.86524569 -0.00925968 0 0 Z " fill="#FAFDFA" transform="translate(659.18359375,657.63671875)"/>
<path d="M0 0 C43.23 0 86.46 0 131 0 C129 4 129 4 127 6 C124.61432457 6.24609566 124.61432457 6.24609566 121.55844116 6.24050903 C120.40295273 6.24325836 119.24746429 6.24600769 118.05696106 6.24884033 C116.78310043 6.24164978 115.50923981 6.23445923 114.19677734 6.22705078 C112.84674589 6.22648686 111.49671383 6.22680286 110.14668274 6.22793579 C106.47537724 6.22851105 102.80420169 6.21672892 99.13292646 6.20278788 C95.29855471 6.1903092 91.46418018 6.18911228 87.62979126 6.18673706 C80.36601415 6.18051385 73.10229705 6.1640917 65.8385464 6.14403808 C57.57022562 6.1217052 49.30190202 6.11069223 41.03355861 6.10064721 C24.02233669 6.07972617 7.01117697 6.04413237 -10 6 C-10 12.27 -10 18.54 -10 25 C-10.33 25 -10.66 25 -11 25 C-11 18.4 -11 11.8 -11 5 C-2.09 4.67 6.82 4.34 16 4 C16 3.34 16 2.68 16 2 C10.72 1.67 5.44 1.34 0 1 C0 0.67 0 0.34 0 0 Z " fill="#4191C0" transform="translate(524,480)"/>
<path d="M0 0 C3.0220794 1.74450506 5.41651082 3.83302164 7 7 C7.37254574 11.93623109 7.20630254 15.10663263 4 19 C2.68 19.33 1.36 19.66 0 20 C0 33.2 0 46.4 0 60 C0.66 60 1.32 60 2 60 C1.34580901 65.06998019 -0.8546409 69.41990777 -3 74 C-5.105868 71.894132 -5.92752247 70.2634771 -7.125 67.5625 C-7.47820313 66.78003906 -7.83140625 65.99757813 -8.1953125 65.19140625 C-9 63 -9 63 -9 60 C-8.34 60 -7.68 60 -7 60 C-7.01943176 54.53662704 -7.07118294 49.07486228 -7.15258789 43.61206055 C-7.17574988 41.75472787 -7.1901594 39.89726418 -7.19555664 38.03979492 C-7.20485962 35.365545 -7.24587697 32.69335032 -7.29296875 30.01953125 C-7.2890361 29.19226028 -7.28510345 28.36498932 -7.28105164 27.51264954 C-7.39105703 23.14207126 -7.55852603 21.5227764 -10.48168945 18.0612793 C-11.31273193 17.38105713 -12.14377441 16.70083496 -13 16 C-14.53214888 12.93570224 -14.22938548 10.3834358 -14 7 C-11.06555393 0.71190129 -6.82521203 -1.30065361 0 0 Z " fill="#E9F2F5" transform="translate(540,372)"/>
<path d="M0 0 C3.85301975 0.61159044 5.91247934 1.22277771 8.9375 3.625 C11.4053316 7.32674739 11.61822732 10.32993475 10.9375 14.625 C7.9375 20.125 7.9375 20.125 4.9375 21.625 C4.93163376 22.18796783 4.92576752 22.75093567 4.91972351 23.33096313 C4.855663 29.20387936 4.77121096 35.076254 4.67504883 40.94873047 C4.6418469 43.13876188 4.6138003 45.32887789 4.59106445 47.51904297 C4.55743191 50.6719153 4.50511052 53.82401573 4.44921875 56.9765625 C4.44282883 57.95178864 4.4364389 58.92701477 4.42985535 59.93179321 C4.3154614 65.2515338 3.8522731 68.98986606 0.9375 73.625 C-1.78498435 69.54127347 -3.31678343 66.90458457 -3.28955078 61.94824219 C-3.28932419 60.56726349 -3.28932419 60.56726349 -3.28909302 59.15838623 C-3.27877045 58.17283752 -3.26844788 57.18728882 -3.2578125 56.171875 C-3.2549826 55.15651672 -3.25215271 54.14115845 -3.24923706 53.09503174 C-3.23805001 49.85490084 -3.21294791 46.61504724 -3.1875 43.375 C-3.1774683 41.17708733 -3.16834278 38.97917032 -3.16015625 36.78125 C-3.13811551 31.39573886 -3.10465251 26.01038924 -3.0625 20.625 C-3.68640625 20.34140625 -4.3103125 20.0578125 -4.953125 19.765625 C-7.85016188 18.19907913 -8.70854098 16.60370985 -10.0625 13.625 C-10.68855936 10.42514105 -10.57647109 8.55880829 -8.99609375 5.6875 C-6.42953186 2.2187951 -4.44442174 0.16866876 0 0 Z " fill="#EFF5F8" transform="translate(479.0625,371.375)"/>
<path d="M0 0 C0.66 0 1.32 0 2 0 C4.29199197 5.58139666 6.57019594 11.16814941 8.8359375 16.76025391 C9.60823426 18.66086846 10.38424251 20.55997935 11.1640625 22.45751953 C12.28590065 25.1891382 13.39417278 27.92592969 14.5 30.6640625 C14.84998047 31.50804596 15.19996094 32.35202942 15.56054688 33.22158813 C17.33364155 37.65181635 18.44031527 41.13589224 18 46 C13.9472484 46.98248524 10.16138263 47.08159574 6 47 C6 47.99 6 48.98 6 50 C7.98 50 9.96 50 12 50 C12 50.66 12 51.32 12 52 C10.02 52 8.04 52 6 52 C5.34 50.35 4.68 48.7 4 47 C2.25493385 48.74506615 2.76717216 51.19039143 2.68359375 53.56640625 C2.64169922 54.69111328 2.59980469 55.81582031 2.55664062 56.97460938 C2.51732422 58.15861328 2.47800781 59.34261719 2.4375 60.5625 C2.39431641 61.75037109 2.35113281 62.93824219 2.30664062 64.16210938 C2.20016454 67.10794784 2.09815159 70.0538743 2 73 C1.67 73 1.34 73 1 73 C0.67 54.52 0.34 36.04 0 17 C-0.66 18.98 -1.32 20.96 -2 23 C-2.66 23 -3.32 23 -4 23 C-4.33 22.34 -4.66 21.68 -5 21 C-5.99 21.66 -6.98 22.32 -8 23 C-5.81659819 15.13620323 -3.00714974 7.58324716 0 0 Z " fill="#3B7EB1" transform="translate(507,430)"/>
<path d="M0 0 C0.80034668 -0.0049649 1.60069336 -0.00992981 2.42529297 -0.01504517 C5.07479714 -0.02965783 7.72424143 -0.03646752 10.3737793 -0.04199219 C12.21599835 -0.04774466 14.05821738 -0.05350238 15.9004364 -0.05926514 C19.76484455 -0.06977277 23.62923192 -0.0756169 27.49365234 -0.07910156 C32.44008146 -0.08458383 37.38623497 -0.10860714 42.33257771 -0.13707352 C46.13904111 -0.15571829 49.94543838 -0.16090649 53.75194359 -0.16243744 C55.57516167 -0.16546066 57.39837869 -0.17347805 59.2215519 -0.18662262 C61.77551725 -0.20372061 64.32881277 -0.20179376 66.8828125 -0.1953125 C68.00755226 -0.20913467 68.00755226 -0.20913467 69.15501404 -0.22323608 C74.77421512 -0.1786757 78.84490874 1.08734826 83.03393555 4.87988281 C83.52120117 5.46769531 84.0084668 6.05550781 84.51049805 6.66113281 C85.01323242 7.24894531 85.5159668 7.83675781 86.03393555 8.44238281 C87.13549805 10.16113281 87.13549805 10.16113281 87.13549805 13.16113281 C82.27434063 12.74446218 80.37155384 10.65957151 77.13549805 7.16113281 C74.03483334 5.61080046 70.75594214 6.01384686 67.3527832 6.01586914 C66.54936996 6.01251053 65.74595673 6.00915192 64.91819763 6.00569153 C62.25363635 5.99616736 59.58913781 5.99423762 56.92456055 5.99316406 C55.07612075 5.98995229 53.2276812 5.98658827 51.37924194 5.983078 C47.50046194 5.97708291 43.62170423 5.97523847 39.74291992 5.97583008 C34.77054363 5.97593167 29.79831022 5.96228388 24.82596779 5.94505787 C21.00671735 5.93394333 17.1875015 5.93191071 13.36823654 5.9324398 C11.53500247 5.93125869 9.70176753 5.92682959 7.86854935 5.91910744 C5.30459828 5.90931944 2.74095793 5.91218096 0.17700195 5.91821289 C-0.58158615 5.91259338 -1.34017426 5.90697388 -2.12174988 5.90118408 C-5.85870971 5.92354501 -8.69286706 6.07520452 -11.86450195 8.16113281 C-12.52450195 7.50113281 -13.18450195 6.84113281 -13.86450195 6.16113281 C-14.85450195 7.64613281 -14.85450195 7.64613281 -15.86450195 9.16113281 C-16.52450195 9.16113281 -17.18450195 9.16113281 -17.86450195 9.16113281 C-16.36972081 5.35623536 -14.17007981 3.49922447 -10.86450195 1.16113281 C-7.19934489 -0.06058621 -3.81687162 0.00564457 0 0 Z " fill="#3EA5C8" transform="translate(423.864501953125,316.8388671875)"/>
<path d="M0 0 C1.1875 1.6875 1.1875 1.6875 2 4 C1.29601326 5.03020515 1.29601326 5.03020515 0.57780457 6.08122253 C-1.59947025 10.1089588 -1.44005716 13.50293371 -1.43237305 18.01293945 C-1.4425647 18.91099808 -1.45275635 19.8090567 -1.46325684 20.73432922 C-1.49338031 23.69404342 -1.50265186 26.65343391 -1.51171875 29.61328125 C-1.5285659 31.66880875 -1.54671619 33.72432594 -1.56611633 35.77983093 C-1.61361843 41.18353049 -1.64342655 46.58718829 -1.66955566 51.99102783 C-1.69936002 57.50777433 -1.74589082 63.02437693 -1.79101562 68.54101562 C-1.8770512 79.36060182 -1.94439547 90.18021762 -2 101 C-2.33 101 -2.66 101 -3 101 C-3.33 92.75 -3.66 84.5 -4 76 C-4.72923768 89.96451224 -5.18524623 103.88211765 -5.31640625 117.86328125 C-5.33706215 119.76141216 -5.35806024 121.65953938 -5.37937927 123.55766296 C-5.43371115 128.47450704 -5.48349951 133.39138619 -5.53222656 138.30828857 C-5.58310493 143.35724892 -5.63843915 148.40616041 -5.69335938 153.45507812 C-5.79984795 163.30334337 -5.90151988 173.15165163 -6 183 C-6.33 183 -6.66 183 -7 183 C-7.04669036 160.25192635 -7.0819743 137.50386057 -7.10362434 114.75574875 C-7.11394336 104.19375763 -7.12801565 93.63179625 -7.15087891 83.06982422 C-7.17079363 73.86558966 -7.18371188 64.66137664 -7.18817699 55.45712113 C-7.19078762 50.58212255 -7.19693674 45.70718559 -7.21146011 40.83220673 C-7.22501372 36.24567592 -7.22922714 31.65923226 -7.22621536 27.07268333 C-7.22676652 25.38762374 -7.23075717 23.7025613 -7.23841095 22.017519 C-7.24833749 19.71980322 -7.24597735 17.42241799 -7.24050903 15.12469482 C-7.24235262 13.83787182 -7.24419621 12.55104881 -7.24609566 11.22523117 C-7.01559593 8.20439401 -6.60068153 6.52656901 -5 4 C-4.01 4 -3.02 4 -2 4 C-1.34 2.68 -0.68 1.36 0 0 Z " fill="#558FB8" transform="translate(410,322)"/>
<path d="M0 0 C33 0 66 0 100 0 C97 2 97 2 94.8125 1.625 C94.214375 1.41875 93.61625 1.2125 93 1 C93 2.98 93 4.96 93 7 C85.18954162 7.0254465 77.37909401 7.04290736 69.56860352 7.05493164 C66.91396124 7.05937963 64.25937348 7.06676042 61.60473633 7.07543945 C57.77945273 7.08762874 53.95420579 7.09325664 50.12890625 7.09765625 C48.36118614 7.10539818 48.36118614 7.10539818 46.55775452 7.11329651 C40.27986143 7.1137197 34.22539473 6.80818671 28 6 C27.34 6 26.68 6 26 6 C24.66216607 5.68521554 23.32796291 5.35412344 22 5 C22 4.01 22 3.02 22 2 C14.74 1.67 7.48 1.34 0 1 C0 0.67 0 0.34 0 0 Z " fill="#68B88A" transform="translate(512,330)"/>
<path d="M0 0 C0.80244141 0.00966797 1.60488281 0.01933594 2.43164062 0.02929688 C3.26501953 0.05443359 4.09839844 0.07957031 4.95703125 0.10546875 C6.22450195 0.12577148 6.22450195 0.12577148 7.51757812 0.14648438 C9.60183509 0.18181076 11.68576402 0.23561736 13.76953125 0.29296875 C13.76953125 1.61296875 13.76953125 2.93296875 13.76953125 4.29296875 C8.81953125 4.62296875 3.86953125 4.95296875 -1.23046875 5.29296875 C-0.90046875 6.94296875 -0.57046875 8.59296875 -0.23046875 10.29296875 C6.36953125 10.62296875 12.96953125 10.95296875 19.76953125 11.29296875 C19.76953125 12.61296875 19.76953125 13.93296875 19.76953125 15.29296875 C18.44953125 15.29296875 17.12953125 15.29296875 15.76953125 15.29296875 C15.79273438 15.99164062 15.8159375 16.6903125 15.83984375 17.41015625 C15.86691406 18.77527344 15.86691406 18.77527344 15.89453125 20.16796875 C15.91773438 21.07289063 15.9409375 21.9778125 15.96484375 22.91015625 C15.76953125 25.29296875 15.76953125 25.29296875 13.76953125 27.29296875 C10.83330268 27.76273374 7.86414081 27.66332147 4.89453125 27.66796875 C4.07855469 27.69246094 3.26257813 27.71695313 2.421875 27.7421875 C-3.55625328 27.77144425 -3.55625328 27.77144425 -6.7734375 25.48828125 C-8.89652426 22.28942131 -8.69966251 20.0465188 -8.23046875 16.29296875 C-6.73046875 13.85546875 -6.73046875 13.85546875 -5.23046875 12.29296875 C-5.89046875 11.63296875 -6.55046875 10.97296875 -7.23046875 10.29296875 C-7.79690771 4.06214019 -7.79690771 4.06214019 -5.9753418 1.58862305 C-3.8066423 -0.02174329 -2.67803021 -0.05697937 0 0 Z " fill="#6C6D6E" transform="translate(506.23046875,728.70703125)"/>
<path d="M0 0 C1.65 0 3.3 0 5 0 C5 9.24 5 18.48 5 28 C2.1125 28.061875 -0.775 28.12375 -3.75 28.1875 C-4.65331055 28.21481201 -5.55662109 28.24212402 -6.48730469 28.27026367 C-9.99309846 28.30670073 -12.37143356 28.33087581 -15.515625 26.67578125 C-17.94810525 23.92963907 -18.19797979 21.15704427 -18.3125 17.625 C-18.34988281 16.87476563 -18.38726563 16.12453125 -18.42578125 15.3515625 C-17.80127151 11.90243533 -16.57408771 10.35923609 -14 8 C-10.546875 7.51171875 -10.546875 7.51171875 -6.75 7.6875 C-5.48671875 7.73261719 -4.2234375 7.77773438 -2.921875 7.82421875 C-1.95765625 7.88222656 -0.9934375 7.94023438 0 8 C0 5.36 0 2.72 0 0 Z " fill="#6D6E6D" transform="translate(656,728)"/>
<path d="M0 0 C32.01 0 64.02 0 97 0 C97 7.26 97 14.52 97 22 C96.34 22.66 95.68 23.32 95 24 C92.88918131 17.66754392 94 10.6749948 94 4 C62.98 4 31.96 4 0 4 C0 2.68 0 1.36 0 0 Z " fill="#DFF2EC" transform="translate(513,337)"/>
<path d="M0 0 C1.31871094 0.00386719 2.63742187 0.00773438 3.99609375 0.01171875 C7.18855689 0.28096263 8.96933605 0.50939092 11.5625 2.3125 C12.90533649 4.99817297 12.80537519 7.18996853 12.875 10.1875 C12.91238281 11.23679687 12.94976563 12.28609375 12.98828125 13.3671875 C12.4648448 16.98802313 11.37818857 18.06621784 8.5625 20.3125 C5.89153306 21.64798347 3.73210576 21.55513562 0.75 21.625 C-0.28769531 21.66238281 -1.32539062 21.69976563 -2.39453125 21.73828125 C-6.28139315 21.19441996 -7.83813882 20.24802629 -10.4375 17.3125 C-11.03125 13.96484375 -11.03125 13.96484375 -10.9375 10.25 C-10.92203125 8.40728516 -10.92203125 8.40728516 -10.90625 6.52734375 C-10.4375 3.3125 -10.4375 3.3125 -9.37109375 1.3984375 C-6.36575378 -0.28941 -3.34916699 -0.08027725 0 0 Z " fill="#777877" transform="translate(590.4375,735.6875)"/>
<path d="M0 0 C2.31 0 4.62 0 7 0 C8.60520934 3.04111749 10.20897836 6.08299233 11.8125 9.125 C12.26431641 9.9809375 12.71613281 10.836875 13.18164062 11.71875 C20 24.6587021 20 24.6587021 20 27 C18.02 27 16.04 27 14 27 C13.34 25.02 12.68 23.04 12 21 C6.39 21 0.78 21 -5 21 C-5.66 22.98 -6.32 24.96 -7 27 C-8.98 27 -10.96 27 -13 27 C-11.5893584 23.80980062 -10.17039391 20.62336785 -8.75 17.4375 C-8.35425781 16.54224609 -7.95851563 15.64699219 -7.55078125 14.72460938 C-5.27788347 9.63853484 -2.85981219 4.78165845 0 0 Z " fill="#6C6E6E" transform="translate(357,729)"/>
<path d="M0 0 C4.48507903 -0.09194923 8.96687696 -0.17153929 13.45214844 -0.21972656 C14.97700085 -0.23981599 16.50177648 -0.26709316 18.02636719 -0.30175781 C20.22089598 -0.35039796 22.41440469 -0.37299396 24.609375 -0.390625 C25.92905273 -0.41157227 27.24873047 -0.43251953 28.60839844 -0.45410156 C32 0 32 0 34.4375 1.78125 C36.77255994 5.09703511 36.42865318 8.36085774 36.25 12.25 C36.23195313 12.99507812 36.21390625 13.74015625 36.1953125 14.5078125 C36.14835649 16.33909701 36.07661652 18.16971649 36 20 C34.35 20 32.7 20 31 20 C30.67 15.05 30.34 10.1 30 5 C27.03 4.67 24.06 4.34 21 4 C21 9.28 21 14.56 21 20 C19.35 20 17.7 20 16 20 C15.67 15.05 15.34 10.1 15 5 C12.03 4.67 9.06 4.34 6 4 C6 9.28 6 14.56 6 20 C4.02 20 2.04 20 0 20 C0 13.4 0 6.8 0 0 Z " fill="#6C6D6E" transform="translate(382,736)"/>
<path d="M0 0 C0.98355469 0.02255859 1.96710937 0.04511719 2.98046875 0.06835938 C5.4051947 0.12721195 7.82681983 0.20936569 10.25 0.3125 C10.25 1.6325 10.25 2.9525 10.25 4.3125 C4.31 4.6425 -1.63 4.9725 -7.75 5.3125 C-8.08 6.6325 -8.41 7.9525 -8.75 9.3125 C-6.57422933 11.48827067 -0.82809077 10.61312546 2.25976562 10.65429688 C5.73555821 10.79103894 7.88005386 11.04509011 10.73046875 13.10546875 C12.33544551 15.43660465 12.7936435 16.51931599 12.75 19.3125 C12.7603125 19.9725 12.770625 20.6325 12.78125 21.3125 C11.93084285 24.51403279 11.05169299 25.46108884 8.25 27.3125 C4.48923889 27.80717528 0.78463266 27.68737367 -3 27.5625 C-4.03125 27.54445313 -5.0625 27.52640625 -6.125 27.5078125 C-8.66761064 27.46072712 -11.20833162 27.3949805 -13.75 27.3125 C-13.75 25.9925 -13.75 24.6725 -13.75 23.3125 C-3.355 22.8175 -3.355 22.8175 7.25 22.3125 C6.755 19.8375 6.755 19.8375 6.25 17.3125 C5.15300781 17.29832031 4.05601562 17.28414062 2.92578125 17.26953125 C1.47131302 17.22261292 0.01688723 17.17436562 -1.4375 17.125 C-2.15873047 17.11919922 -2.87996094 17.11339844 -3.62304688 17.10742188 C-7.75665519 16.93754756 -9.37417496 16.61011014 -12.734375 13.94921875 C-14.75 11.3125 -14.75 11.3125 -15.3125 8.3125 C-13.61142628 -0.75989317 -7.78763911 -0.33701501 0 0 Z " fill="#6D6D6D" transform="translate(560.75,728.6875)"/>
<path d="M0 0 C2.58445773 -0.1081866 5.16437352 -0.18737237 7.75 -0.25 C8.47960937 -0.28351562 9.20921875 -0.31703125 9.9609375 -0.3515625 C13.32092654 -0.41265321 15.59324737 -0.24405158 18.5 1.5 C20.61731908 5.02886514 20.43281867 8.27017826 20.25 12.25 C20.23195313 12.99507812 20.21390625 13.74015625 20.1953125 14.5078125 C20.14835649 16.33909701 20.07661652 18.16971649 20 20 C16.72946483 20.11608726 13.4594582 20.18720711 10.1875 20.25 C9.25873047 20.28351562 8.32996094 20.31703125 7.37304688 20.3515625 C6.0340332 20.37089844 6.0340332 20.37089844 4.66796875 20.390625 C3.84578857 20.41157227 3.0236084 20.43251953 2.17651367 20.45410156 C0 20 0 20 -1.79956055 18.17089844 C-3 16 -3 16 -2.875 12.875 C-2 10 -2 10 1 8 C4.35546875 7.8046875 4.35546875 7.8046875 8.1875 7.875 C9.45980469 7.89304687 10.73210937 7.91109375 12.04296875 7.9296875 C13.50669922 7.96449219 13.50669922 7.96449219 15 8 C14.67 7.01 14.34 6.02 14 5 C7.07 4.505 7.07 4.505 0 4 C0 2.68 0 1.36 0 0 Z " fill="#6C6D6E" transform="translate(427,736)"/>
<path d="M0 0 C18.05425605 -0.04670329 36.10849645 -0.08198064 54.16279984 -0.10362434 C62.54556547 -0.11394062 70.9282936 -0.12800767 79.31103516 -0.15087891 C86.61671211 -0.17080202 93.92236189 -0.18371388 101.22806525 -0.18817699 C105.09702654 -0.1907862 108.9659101 -0.19692627 112.8348465 -0.21146011 C116.47584952 -0.225027 120.11674273 -0.22922446 123.75776863 -0.22621536 C125.73225936 -0.22702859 127.70673812 -0.23779492 129.68119812 -0.24884033 C130.85626419 -0.246091 132.03133026 -0.24334167 133.24200439 -0.24050903 C134.26335102 -0.24235262 135.28469765 -0.24419621 136.33699417 -0.24609566 C139.04551814 0.00420646 140.68687233 0.61086394 143 2 C142.67 2.99 142.34 3.98 142 5 C142 4.34 142 3.68 142 3 C95.14 3 48.28 3 0 3 C0 2.01 0 1.02 0 0 Z " fill="#E7F3F8" transform="translate(513,477)"/>
<path d="M0 0 C1.33570253 0.32370921 2.66850086 0.65941383 4 1 C5.80459606 1.14442951 7.61287591 1.24605629 9.421875 1.31640625 C10.44667969 1.35830078 11.47148438 1.40019531 12.52734375 1.44335938 C13.59082031 1.48267578 14.65429688 1.52199219 15.75 1.5625 C16.82894531 1.60568359 17.90789063 1.64886719 19.01953125 1.69335938 C21.67956428 1.79928989 24.33968812 1.90136421 27 2 C27 3.32 27 4.64 27 6 C27.99 6 28.98 6 30 6 C30.66 5.01 31.32 4.02 32 3 C32 4.32 32 5.64 32 7 C34.97 7 37.94 7 41 7 C41 7.33 41 7.66 41 8 C29.12 8.33 17.24 8.66 5 9 C3.33469252 19.53993764 3.33469252 19.53993764 2.41015625 30.02734375 C2.35493553 31.07764015 2.35493553 31.07764015 2.29859924 32.14915466 C1.84549689 41.28102036 1.64637068 50.42248971 1.4375 59.5625 C1.39414857 61.36393877 1.35053008 63.16537113 1.30664062 64.96679688 C1.20136318 69.31113059 1.09964813 73.65553367 1 78 C0.67 78 0.34 78 0 78 C-0.15358268 67.97779948 -0.30176443 57.95553529 -0.4429636 47.9331522 C-0.50869268 43.27985307 -0.5763142 38.62659718 -0.64819336 33.97338867 C-0.7174331 29.48661171 -0.78178974 24.99978933 -0.84269524 20.51289177 C-0.86685555 18.79717381 -0.89280478 17.08148011 -0.92053413 15.36581612 C-0.95893753 12.97121099 -0.99109989 10.57660013 -1.02172852 8.18188477 C-1.03467453 7.46547318 -1.04762054 6.74906158 -1.06095886 6.01094055 C-1.0790691 4.34060162 -1.04514946 2.66982684 -1 1 C-0.67 0.67 -0.34 0.34 0 0 Z " fill="#4BAAA8" transform="translate(508,329)"/>
<path d="M0 0 C1.81274414 0.01450195 1.81274414 0.01450195 3.66210938 0.02929688 C5.55606445 0.06700195 5.55606445 0.06700195 7.48828125 0.10546875 C9.39963867 0.12577148 9.39963867 0.12577148 11.34960938 0.14648438 C14.50042182 0.18188676 17.6503917 0.23127085 20.80078125 0.29296875 C20.80078125 3.26296875 20.80078125 6.23296875 20.80078125 9.29296875 C16.45227171 11.46722352 10.57720759 10.47793349 5.80078125 10.48046875 C4.58648438 10.49271484 3.3721875 10.50496094 2.12109375 10.51757812 C0.38472656 10.52047852 0.38472656 10.52047852 -1.38671875 10.5234375 C-2.45277344 10.52754639 -3.51882813 10.53165527 -4.6171875 10.53588867 C-7.19921875 10.29296875 -7.19921875 10.29296875 -9.19921875 8.29296875 C-9.5510858 5.5484058 -9.66211144 3.96429791 -8.06713867 1.65112305 C-5.36230408 -0.3155473 -3.31559259 -0.04669849 0 0 Z " fill="#FBFCFA" transform="translate(583.19921875,677.70703125)"/>
<path d="M0 0 C0 10.89 0 21.78 0 33 C0.99 33 1.98 33 3 33 C2.34580901 38.06998019 0.1453591 42.41990777 -2 47 C-4.105868 44.894132 -4.92752247 43.2634771 -6.125 40.5625 C-6.47820313 39.78003906 -6.83140625 38.99757813 -7.1953125 38.19140625 C-8 36 -8 36 -8 33 C-7.01 33 -6.02 33 -5 33 C-5.02094727 32.10692139 -5.04189453 31.21384277 -5.06347656 30.29370117 C-5.13167346 26.97816657 -5.18180815 23.66337761 -5.21972656 20.34741211 C-5.23983525 18.91272214 -5.26712673 17.47811407 -5.30175781 16.04370117 C-5.3503146 13.98075161 -5.37297406 11.91888569 -5.390625 9.85546875 C-5.41157227 8.61434326 -5.43251953 7.37321777 -5.45410156 6.09448242 C-5 3 -5 3 -3.03808594 1.0715332 C-1 0 -1 0 0 0 Z " fill="#F5F9FA" transform="translate(539,399)"/>
<path d="M0 0 C2.8875 -0.061875 5.775 -0.12375 8.75 -0.1875 C9.65331055 -0.21481201 10.55662109 -0.24212402 11.48730469 -0.27026367 C14.80276261 -0.3047225 17.44238738 -0.21080477 20.5625 0.96875 C22.91784118 4.2969495 22.41889456 7.7282217 22.25 11.6875 C22.23195313 12.48478516 22.21390625 13.28207031 22.1953125 14.10351562 C22.14822247 16.06952449 22.07647899 18.03491494 22 20 C20.35 20 18.7 20 17 20 C16.67 15.05 16.34 10.1 16 5 C12.37 4.67 8.74 4.34 5 4 C5 9.28 5 14.56 5 20 C3.35 20 1.7 20 0 20 C0 13.4 0 6.8 0 0 Z " fill="#767779" transform="translate(455,736)"/>
<path d="M0 0 C3.74225404 1.1566967 5.28964665 1.79776291 7.4375 5.0625 C8 8.5 8 8.5 7.4375 12.0625 C4.99151113 15.44371991 3.54453441 16.83186783 -0.5625 17.6875 C-4.66953441 16.83186783 -6.11651113 15.44371991 -8.5625 12.0625 C-9.36035988 7.59448469 -9.07984028 5.81499495 -6.5 2.0625 C-3.5625 0.0625 -3.5625 0.0625 0 0 Z " fill="#384B95" transform="translate(458.5625,493.9375)"/>
<path d="M0 0 C3.3125 -0.3125 3.3125 -0.3125 7 0 C9.56110377 2.80895252 9.97306037 4.52406656 10.1875 8.3125 C10.0946875 9.6428125 10.0946875 9.6428125 10 11 C8.1875 10.75 8.1875 10.75 6 10 C5.01 8.68 4.02 7.36 3 6 C1.35 9.63 -0.3 13.26 -2 17 C0.97 17 3.94 17 7 17 C7 17.33 7 17.66 7 18 C6.40832031 17.979375 5.81664062 17.95875 5.20703125 17.9375 C2.59887929 18.00557574 0.48758722 18.18901295 -2 19 C-3.63055353 21.00846828 -4.62239696 22.91005707 -5.63671875 25.28515625 C-6.08660156 25.85105469 -6.53648437 26.41695312 -7 27 C-10.14453125 27.24609375 -10.14453125 27.24609375 -13 27 C-11.5893584 23.80980062 -10.17039391 20.62336785 -8.75 17.4375 C-8.35425781 16.54224609 -7.95851563 15.64699219 -7.55078125 14.72460938 C-5.27788347 9.63853484 -2.85981219 4.78165845 0 0 Z " fill="#6B6C6D" transform="translate(357,729)"/>
<path d="M0 0 C9.89914663 -0.61442979 9.89914663 -0.61442979 13.6875 1.5 C15.49416915 4.94127457 16.00781873 8.20585891 15 12 C13.671875 14.234375 13.671875 14.234375 11 16 C7.23923889 16.49467528 3.53463266 16.37487367 -0.25 16.25 C-1.28125 16.23195313 -2.3125 16.21390625 -3.375 16.1953125 C-5.91761064 16.14822712 -8.45833162 16.0824805 -11 16 C-11 14.68 -11 13.36 -11 12 C-0.605 11.505 -0.605 11.505 10 11 C9.67 9.35 9.34 7.7 9 6 C3.72 5.67 -1.56 5.34 -7 5 C-7 4.67 -7 4.34 -7 4 C-1.72 4 3.56 4 9 4 C9 3.34 9 2.68 9 2 C6.03 1.67 3.06 1.34 0 1 C0 0.67 0 0.34 0 0 Z " fill="#6F6F6F" transform="translate(558,740)"/>
<path d="M0 0 C11.88 0 23.76 0 36 0 C36 30.36 36 60.72 36 92 C22.14 92 8.28 92 -6 92 C-6 91.01 -6 90.02 -6 89 C-5.01 89.33 -4.02 89.66 -3 90 C9.54 90 22.08 90 35 90 C35 60.63 35 31.26 35 1 C23.45 1 11.9 1 0 1 C0 0.67 0 0.34 0 0 Z " fill="#5DB3B3" transform="translate(571,341)"/>
<path d="M0 0 C1.65 0 3.3 0 5 0 C5.33 7.92 5.66 15.84 6 24 C7.32 24.33 8.64 24.66 10 25 C10 26.32 10 27.64 10 29 C8.72125 29.061875 7.4425 29.12375 6.125 29.1875 C5.04605469 29.23970703 5.04605469 29.23970703 3.9453125 29.29296875 C3.30335938 29.19628906 2.66140625 29.09960938 2 29 C-0.32891212 25.50663182 -0.23551143 24.13992135 -0.1953125 20.01953125 C-0.18886719 18.85615234 -0.18242188 17.69277344 -0.17578125 16.49414062 C-0.15902344 15.27919922 -0.14226563 14.06425781 -0.125 12.8125 C-0.11597656 11.58595703 -0.10695313 10.35941406 -0.09765625 9.09570312 C-0.07406017 6.06360705 -0.04113841 3.03190062 0 0 Z " fill="#737373" transform="translate(610,727)"/>
<path d="M0 0 C0.33 0 0.66 0 1 0 C1.02464513 6.1055471 1.04283371 12.21106551 1.05493164 18.31665039 C1.05997288 20.39543156 1.06680574 22.47420916 1.07543945 24.55297852 C1.08751422 27.53402586 1.09323024 30.51502649 1.09765625 33.49609375 C1.10281754 34.43150497 1.10797882 35.3669162 1.11329651 36.33067322 C1.11337204 37.19149002 1.11344757 38.05230682 1.11352539 38.93920898 C1.115746 39.70087875 1.11796661 40.46254852 1.12025452 41.24729919 C1 43 1 43 0 44 C-0.1584265 46.0708472 -0.25124422 48.14678029 -0.31640625 50.22265625 C-0.35830078 51.48271484 -0.40019531 52.74277344 -0.44335938 54.04101562 C-0.48317596 55.38150736 -0.52288814 56.7220022 -0.5625 58.0625 C-0.60568042 59.40691523 -0.64929456 60.7513166 -0.69335938 62.09570312 C-0.79985358 65.3970234 -0.9018646 68.69842236 -1 72 C-1.33 72 -1.66 72 -2 72 C-2.04628063 62.90769199 -2.08184737 53.81542434 -2.10362434 44.72302437 C-2.11407464 40.5013425 -2.12825645 36.27974105 -2.15087891 32.05810547 C-2.17256303 27.98622723 -2.18455923 23.91442647 -2.18975449 19.84249496 C-2.19345824 18.28670913 -2.20069046 16.73092768 -2.21146011 15.17517471 C-2.22591638 13.00096626 -2.22798044 10.82708058 -2.22705078 8.65283203 C-2.231492 7.41373077 -2.23593323 6.17462952 -2.24050903 4.89797974 C-2 2 -2 2 0 0 Z " fill="#2775A6" transform="translate(406,347)"/>
<path d="M0 0 C1.50046875 0.00386719 1.50046875 0.00386719 3.03125 0.0078125 C4.0315625 0.00523437 5.031875 0.00265625 6.0625 0 C8.53125 0.1328125 8.53125 0.1328125 9.53125 1.1328125 C9.62948937 2.79710301 9.66098631 4.46563181 9.65625 6.1328125 C9.65882813 7.0403125 9.66140625 7.9478125 9.6640625 8.8828125 C9.53125 11.1328125 9.53125 11.1328125 8.53125 12.1328125 C6.70009117 12.23132421 4.86505067 12.26253879 3.03125 12.2578125 C2.0309375 12.26039063 1.030625 12.26296875 0 12.265625 C-2.46875 12.1328125 -2.46875 12.1328125 -3.46875 11.1328125 C-3.56698937 9.46852199 -3.59848631 7.79999319 -3.59375 6.1328125 C-3.59632813 5.2253125 -3.59890625 4.3178125 -3.6015625 3.3828125 C-3.41432647 0.21081393 -3.18581223 0.17138863 0 0 Z " fill="#F7F8F7" transform="translate(588.46875,739.8671875)"/>
<path d="M0 0 C0.33 0.66 0.66 1.32 1 2 C1.99 2.33 2.98 2.66 4 3 C4.94921875 4.7421875 4.94921875 4.7421875 5.6875 6.875 C6.06455078 7.92300781 6.06455078 7.92300781 6.44921875 8.9921875 C7 11 7 11 7 14 C7.99 13.67 8.98 13.34 10 13 C11.52307559 15.95561872 12.15356957 17.39543015 11.3203125 20.67578125 C10.92585937 21.54589844 10.53140625 22.41601562 10.125 23.3125 C9.73570312 24.19550781 9.34640625 25.07851563 8.9453125 25.98828125 C8.63335938 26.65214844 8.32140625 27.31601562 8 28 C4.62962775 24.62962775 3.49335247 20.02513736 1.8125 15.625 C1.43158203 14.6659375 1.05066406 13.706875 0.65820312 12.71875 C0.30306641 11.79320312 -0.05207031 10.86765625 -0.41796875 9.9140625 C-0.74563232 9.0679541 -1.0732959 8.2218457 -1.41088867 7.35009766 C-2.05602818 4.77649097 -1.92666266 3.45947011 -1 1 C-0.67 0.67 -0.34 0.34 0 0 Z " fill="#3A88BB" transform="translate(529,433)"/>
<path d="M0 0 C2.79947917 0.06510417 5.59895833 0.13020833 8.3984375 0.1953125 C8.3984375 4.1553125 8.3984375 8.1153125 8.3984375 12.1953125 C0 12.48828125 0 12.48828125 -2.6015625 12.1953125 C-5.05054097 8.52184479 -4.91693966 6.53174851 -4.6015625 2.1953125 C-2.6015625 0.1953125 -2.6015625 0.1953125 0 0 Z " fill="#F3F4F4" transform="translate(647.6015625,739.8046875)"/>
<path d="M0 0 C0.33 0 0.66 0 1 0 C1.33 11.22 1.66 22.44 2 34 C2.33 26.41 2.66 18.82 3 11 C3.33 11 3.66 11 4 11 C4.83486891 15.26710775 5.06491418 19.15200252 4.87890625 23.4921875 C4.83056641 24.69101562 4.78222656 25.88984375 4.73242188 27.125 C4.67634766 28.3625 4.62027344 29.6 4.5625 30.875 C4.51029297 32.13570313 4.45808594 33.39640625 4.40429688 34.6953125 C4.27505355 37.79715237 4.14010469 40.89863488 4 44 C5.65 44 7.3 44 9 44 C9 44.33 9 44.66 9 45 C2.73 45 -3.54 45 -10 45 C-9.67 44.34 -9.34 43.68 -9 43 C-7.68 43 -6.36 43 -5 43 C-2.6045908 41.63421884 -2.6045908 41.63421884 -1 39 C-0.39562439 36.02927781 -0.39508868 33.10237623 -0.390625 30.078125 C-0.37408875 29.21813904 -0.35755249 28.35815308 -0.34051514 27.47210693 C-0.29201632 24.73133212 -0.27066044 21.9911122 -0.25 19.25 C-0.22184183 17.38929497 -0.19191461 15.52861581 -0.16015625 13.66796875 C-0.08625703 9.11202485 -0.03669405 4.55638933 0 0 Z " fill="#3496AE" transform="translate(509,368)"/>
<path d="M0 0 C10.89 0 21.78 0 33 0 C32.34 1.32 31.68 2.64 31 4 C21.76 4 12.52 4 3 4 C2.67 3.01 2.34 2.02 2 1 C1.34 0.67 0.68 0.34 0 0 Z " fill="#2B78AF" transform="translate(538,481)"/>
<path d="M0 0 C0.66 0 1.32 0 2 0 C2 0.66 2 1.32 2 2 C3.39025391 1.98259766 3.39025391 1.98259766 4.80859375 1.96484375 C6.00613281 1.95582031 7.20367187 1.94679688 8.4375 1.9375 C9.63246094 1.92589844 10.82742188 1.91429687 12.05859375 1.90234375 C15 2 15 2 16 3 C16 4.65 16 6.3 16 8 C10.72 8.66 5.44 9.32 0 10 C-2 7 -2 7 -1.6875 3.875 C-1 1 -1 1 0 0 Z " fill="#7E7E7D" transform="translate(426,745)"/>
<path d="M0 0 C11.625 -0.125 11.625 -0.125 15 1 C15 1.66 15 2.32 15 3 C11.37 3 7.74 3 4 3 C4 8.61 4 14.22 4 20 C2.68 20 1.36 20 0 20 C0 13.4 0 6.8 0 0 Z " fill="#696A6A" transform="translate(455,736)"/>
<path d="M0 0 C1.65 0 3.3 0 5 0 C5.10841951 1.91541138 5.18578079 3.83259773 5.25 5.75 C5.29640625 6.81734375 5.3428125 7.8846875 5.390625 8.984375 C5 12 5 12 3.375 14.375 C0.30483518 16.47563909 -1.56531658 16.41020363 -5.25 16.25 C-6.32765625 16.21390625 -7.4053125 16.1778125 -8.515625 16.140625 C-9.74539063 16.07101562 -9.74539063 16.07101562 -11 16 C-11 15.01 -11 14.02 -11 13 C-10.36191406 12.93941406 -9.72382812 12.87882813 -9.06640625 12.81640625 C-8.24011719 12.73261719 -7.41382813 12.64882813 -6.5625 12.5625 C-5.73878906 12.48128906 -4.91507813 12.40007813 -4.06640625 12.31640625 C-2.01337975 12.21069185 -2.01337975 12.21069185 -1 11 C-0.76636119 9.15108054 -0.58696365 7.29511969 -0.4375 5.4375 C-0.35371094 4.42558594 -0.26992188 3.41367187 -0.18359375 2.37109375 C-0.12300781 1.58863281 -0.06242188 0.80617188 0 0 Z " fill="#666868" transform="translate(598,740)"/>
<path d="M0 0 C1.65322266 0.01740234 1.65322266 0.01740234 3.33984375 0.03515625 C4.99693359 0.04869141 4.99693359 0.04869141 6.6875 0.0625 C7.54214844 0.07410156 8.39679687 0.08570313 9.27734375 0.09765625 C9.27734375 2.73765625 9.27734375 5.37765625 9.27734375 8.09765625 C7.31930868 8.15154712 5.36085466 8.19039842 3.40234375 8.22265625 C2.31179688 8.24585938 1.22125 8.2690625 0.09765625 8.29296875 C-2.72265625 8.09765625 -2.72265625 8.09765625 -4.72265625 6.09765625 C-3.996521 0.14334724 -3.996521 0.14334724 0 0 Z " fill="#F0F1F1" transform="translate(507.72265625,743.90234375)"/>
<path d="M0 0 C0.80244141 0.00966797 1.60488281 0.01933594 2.43164062 0.02929688 C3.26501953 0.05443359 4.09839844 0.07957031 4.95703125 0.10546875 C6.22450195 0.12577148 6.22450195 0.12577148 7.51757812 0.14648438 C9.60183509 0.18181076 11.68576402 0.23561736 13.76953125 0.29296875 C13.76953125 1.61296875 13.76953125 2.93296875 13.76953125 4.29296875 C8.81953125 4.62296875 3.86953125 4.95296875 -1.23046875 5.29296875 C-1.56046875 6.61296875 -1.89046875 7.93296875 -2.23046875 9.29296875 C-3.88046875 9.62296875 -5.53046875 9.95296875 -7.23046875 10.29296875 C-7.59812851 3.79764636 -7.59812851 3.79764636 -5.9831543 1.58081055 C-3.8092119 -0.01656321 -2.67513012 -0.05691766 0 0 Z " fill="#717171" transform="translate(506.23046875,728.70703125)"/>
<path d="M0 0 C2.4375 0.75 2.4375 0.75 4.4375 2.75 C4.77411952 5.9142235 4.93693411 7.93513382 3.25 10.6875 C1.4375 11.75 1.4375 11.75 -1.0625 11.625 C-3.78524244 10.67204015 -5.03739421 10.20711489 -6.5625 7.75 C-6.4375 4.6875 -6.4375 4.6875 -5.5625 1.75 C-2.5625 -0.25 -2.5625 -0.25 0 0 Z " fill="#EDF2F6" transform="translate(511.5625,516.25)"/>
<path d="M0 0 C1.65 0 3.3 0 5 0 C5 6.6 5 13.2 5 20 C3.35 20 1.7 20 0 20 C0 13.4 0 6.8 0 0 Z " fill="#797A78" transform="translate(626,736)"/>
<path d="M0 0 C1.8125 1.1875 1.8125 1.1875 3 3 C3.4334014 5.88934264 3.42525784 7.35092224 1.8125 9.8125 C-0.64907776 11.42525784 -2.11065736 11.4334014 -5 11 C-6.8125 9.8125 -6.8125 9.8125 -8 8 C-8.4334014 5.11065736 -8.42525784 3.64907776 -6.8125 1.1875 C-4.35092224 -0.42525784 -2.88934264 -0.4334014 0 0 Z " fill="#4098C4" transform="translate(539,377)"/>
<path d="M0 0 C1.8125 1.1875 1.8125 1.1875 3 3 C3.4334014 5.88934264 3.42525784 7.35092224 1.8125 9.8125 C-0.64907776 11.42525784 -2.11065736 11.4334014 -5 11 C-6.8125 9.8125 -6.8125 9.8125 -8 8 C-8.4334014 5.11065736 -8.42525784 3.64907776 -6.8125 1.1875 C-4.35092224 -0.42525784 -2.88934264 -0.4334014 0 0 Z " fill="#539BAB" transform="translate(482,377)"/>
<path d="M0 0 C0.33 0 0.66 0 1 0 C2.01726146 12.67943749 2.11427673 25.28539548 2 38 C1.01 38 0.02 38 -1 38 C-1.02464928 32.74894558 -1.04283568 27.49792455 -1.05493164 22.24682617 C-1.05997218 20.45905979 -1.06680454 18.67129755 -1.07543945 16.88354492 C-1.0875173 14.31948832 -1.09323094 11.75548603 -1.09765625 9.19140625 C-1.10281754 8.3872377 -1.10797882 7.58306915 -1.11329651 6.75453186 C-1.11349215 4.83598285 -1.06201983 2.91754632 -1 1 C-0.67 0.67 -0.34 0.34 0 0 Z " fill="#F8FCFC" transform="translate(506,369)"/>
<path d="M0 0 C9.24 0 18.48 0 28 0 C28 0.99 28 1.98 28 3 C18.76 3 9.52 3 0 3 C0 2.01 0 1.02 0 0 Z " fill="#3DA0C2" transform="translate(445,329)"/>
<path d="M0 0 C1.98 0.495 1.98 0.495 4 1 C4 6.28 4 11.56 4 17 C2.35 17 0.7 17 -1 17 C-1.02684679 14.35409986 -1.04676357 11.70846904 -1.0625 9.0625 C-1.07087891 8.30775391 -1.07925781 7.55300781 -1.08789062 6.77539062 C-1.09652441 4.85005687 -1.05224333 2.92464419 -1 1 C-0.67 0.67 -0.34 0.34 0 0 Z " fill="#696A6A" transform="translate(414,739)"/>
<path d="M0 0 C9.89914663 -0.61442979 9.89914663 -0.61442979 13.6875 1.5 C15.64590514 5.2302955 15.40579125 7.80682376 15 12 C14.34 12.66 13.68 13.32 13 14 C9.78253679 11.34209561 9.91766992 10.58834962 9 6 C3.72 5.67 -1.56 5.34 -7 5 C-7 4.67 -7 4.34 -7 4 C-1.72 4 3.56 4 9 4 C9 3.34 9 2.68 9 2 C6.03 1.67 3.06 1.34 0 1 C0 0.67 0 0.34 0 0 Z " fill="#6C6D6D" transform="translate(558,740)"/>
<path d="M0 0 C3.86248624 3.34316036 4.54212374 7.20983513 6 12 C2.37 12 -1.26 12 -5 12 C-2.25 3.375 -2.25 3.375 0 0 Z " fill="#F0F0F0" transform="translate(360,734)"/>
<path d="M0 0 C2 2 2 2 2.1953125 5.6953125 C2.182009 7.17200108 2.15814835 8.64862358 2.125 10.125 C2.11597656 10.87910156 2.10695313 11.63320313 2.09765625 12.41015625 C2.0740687 14.27357254 2.03819719 16.13682593 2 18 C0.68 18 -0.64 18 -2 18 C-2.05397335 15.5622037 -2.09365616 13.12560315 -2.125 10.6875 C-2.14175781 9.99720703 -2.15851563 9.30691406 -2.17578125 8.59570312 C-2.21217794 4.82864604 -2.14378864 3.21568296 0 0 Z " fill="#606263" transform="translate(385,738)"/>
<path d="M0 0 C0.66 0 1.32 0 2 0 C2 5.61 2 11.22 2 17 C0.68 17 -0.64 17 -2 17 C-2.05398987 14.72942623 -2.09278742 12.45848712 -2.125 10.1875 C-2.14820313 8.92292969 -2.17140625 7.65835938 -2.1953125 6.35546875 C-2 3 -2 3 0 0 Z " fill="#69696A" transform="translate(475,739)"/>
<path d="M0 0 C1.29608947 0.93137592 2.58671632 1.8703566 3.875 2.8125 C4.59429688 3.33457031 5.31359375 3.85664063 6.0546875 4.39453125 C8 6 8 6 10 9 C9.01 9.33 8.02 9.66 7 10 C7.33 11.65 7.66 13.3 8 15 C6.87105124 14.06725891 5.74699124 13.12859878 4.625 12.1875 C3.99851562 11.66542969 3.37203125 11.14335937 2.7265625 10.60546875 C1 9 1 9 -1 6 C-0.34 6 0.32 6 1 6 C0.67 4.02 0.34 2.04 0 0 Z " fill="#3CA2CD" transform="translate(618,443)"/>
<path d="M0 0 C1.65 0 3.3 0 5 0 C5 0.99 5 1.98 5 3 C7.97 3 10.94 3 14 3 C14 3.33 14 3.66 14 4 C11.36 4 8.72 4 6 4 C6 9.28 6 14.56 6 20 C5.67 20 5.34 20 5 20 C4.93941406 18.85660156 4.87882812 17.71320312 4.81640625 16.53515625 C4.73201572 15.04425695 4.64736698 13.55337225 4.5625 12.0625 C4.52318359 11.30775391 4.48386719 10.55300781 4.44335938 9.77539062 C4.55961976 6.08055813 4.55961976 6.08055813 3 3 C1.47893366 6.04213267 1.62570662 9.28047572 1.4375 12.625 C1.39431641 13.33140625 1.35113281 14.0378125 1.30664062 14.765625 C1.20055249 16.51018537 1.09977111 18.25506697 1 20 C0.67 20 0.34 20 0 20 C0 13.4 0 6.8 0 0 Z " fill="#929395" transform="translate(382,736)"/>
<path d="M0 0 C0.33 0 0.66 0 1 0 C1.83486891 4.26710775 2.06491418 8.15200252 1.87890625 12.4921875 C1.83056641 13.69101562 1.78222656 14.88984375 1.73242188 16.125 C1.67634766 17.3625 1.62027344 18.6 1.5625 19.875 C1.51029297 21.13570313 1.45808594 22.39640625 1.40429688 23.6953125 C1.27505355 26.79715237 1.14010469 29.89863488 1 33 C2.65 33 4.3 33 6 33 C6 33.33 6 33.66 6 34 C2.7 34 -0.6 34 -4 34 C-3 32 -3 32 -1 29 C-0.6303565 25.89791016 -0.6303565 25.89791016 -0.5859375 22.36328125 C-0.54726563 21.06455078 -0.50859375 19.76582031 -0.46875 18.42773438 C-0.43729483 17.05599427 -0.40604749 15.68424939 -0.375 14.3125 C-0.33680803 12.92901215 -0.29775558 11.54554777 -0.2578125 10.16210938 C-0.16339483 6.7748755 -0.07781882 3.38764931 0 0 Z " fill="#2E8BB3" transform="translate(512,379)"/>
<path d="M0 0 C3.96 0 7.92 0 12 0 C12 1.32 12 2.64 12 4 C8.04 4 4.08 4 0 4 C0 2.68 0 1.36 0 0 Z " fill="#F9F9F9" transform="translate(430,748)"/>
<path d="M0 0 C0.33 0.66 0.66 1.32 1 2 C1.99 2.33 2.98 2.66 4 3 C4 6.3 4 9.6 4 13 C3.67 12.34 3.34 11.68 3 11 C2.01 10.67 1.02 10.34 0 10 C-1.42127405 7.37064301 -2.10235272 5.73693956 -1.6875 2.75 C-1 1 -1 1 0 0 Z " fill="#307FB1" transform="translate(529,433)"/>
<path d="M0 0 C4.95 0 9.9 0 15 0 C15.33 0.99 15.66 1.98 16 3 C10.72 3 5.44 3 0 3 C0 2.01 0 1.02 0 0 Z " fill="#5D5D5E" transform="translate(427,736)"/>
<path d="M0 0 C3.93736123 -0.08696177 7.87447628 -0.14037835 11.8125 -0.1875 C13.49182617 -0.22520508 13.49182617 -0.22520508 15.20507812 -0.26367188 C16.27822266 -0.27333984 17.35136719 -0.28300781 18.45703125 -0.29296875 C19.9416687 -0.31653442 19.9416687 -0.31653442 21.45629883 -0.34057617 C24.3699213 0.04952877 25.22497802 0.72008288 27 3 C26.67 3.99 26.34 4.98 26 6 C24.68 5.67 23.36 5.34 22 5 C22 4.01 22 3.02 22 2 C14.74 1.67 7.48 1.34 0 1 C0 0.67 0 0.34 0 0 Z " fill="#79BCBA" transform="translate(512,330)"/>
<path d="M0 0 C0.33 0 0.66 0 1 0 C1.19522373 2.58296017 1.38144403 5.16604079 1.5625 7.75 C1.61857422 8.47960937 1.67464844 9.20921875 1.73242188 9.9609375 C1.97709908 13.54953651 1.99666259 16.55027225 1 20 C0.34 20 -0.32 20 -1 20 C-1.02888514 16.85418577 -1.04675923 13.70840531 -1.0625 10.5625 C-1.07087891 9.66466797 -1.07925781 8.76683594 -1.08789062 7.84179688 C-1.09111328 6.98779297 -1.09433594 6.13378906 -1.09765625 5.25390625 C-1.10551147 4.06776733 -1.10551147 4.06776733 -1.11352539 2.85766602 C-1 1 -1 1 0 0 Z " fill="#A6D570" transform="translate(683,662)"/>
<path d="M0 0 C4.95 0 9.9 0 15 0 C15.33 0.99 15.66 1.98 16 3 C14.083412 3.02712153 12.1667127 3.04645097 10.25 3.0625 C8.64898438 3.07990234 8.64898438 3.07990234 7.015625 3.09765625 C4.46631499 3.01510087 2.42066409 2.74617558 0 2 C0 1.34 0 0.68 0 0 Z " fill="#6B6C6C" transform="translate(583,736)"/>
<path d="M0 0 C4.875 1.75 4.875 1.75 6 4 C6.039992 5.99960012 6.04346799 8.00047242 6 10 C4.68 9.67 3.36 9.34 2 9 C1.67 7.02 1.34 5.04 1 3 C0.34 3 -0.32 3 -1 3 C-0.67 2.01 -0.34 1.02 0 0 Z " fill="#646466" transform="translate(361,730)"/>
<path d="M0 0 C1.77007714 -0.08114106 3.54122098 -0.13925505 5.3125 -0.1875 C6.29863281 -0.22230469 7.28476562 -0.25710938 8.30078125 -0.29296875 C11 0 11 0 12.85546875 1.51171875 C13.23316406 2.00285156 13.61085938 2.49398437 14 3 C9.27859693 6.14760205 6.3931485 5.97707592 0.875 5.5625 C-0.25615234 5.48418945 -0.25615234 5.48418945 -1.41015625 5.40429688 C-3.2737937 5.27454996 -5.13694996 5.13792512 -7 5 C-7 4.67 -7 4.34 -7 4 C-1.72 4 3.56 4 9 4 C9 3.34 9 2.68 9 2 C6.03 1.67 3.06 1.34 0 1 C0 0.67 0 0.34 0 0 Z " fill="#939494" transform="translate(558,740)"/>
<path d="M0 0 C3.03901272 2.56528426 4.24652224 5.42319941 5.75 9.0625 C6.19859375 10.12597656 6.6471875 11.18945312 7.109375 12.28515625 C8 15 8 15 7 17 C4.525 16.01 4.525 16.01 2 15 C2 14.34 2 13.68 2 13 C2.66 13 3.32 13 4 13 C3.71125 12.22914063 3.4225 11.45828125 3.125 10.6640625 C2.75375 9.66117187 2.3825 8.65828125 2 7.625 C1.62875 6.62726563 1.2575 5.62953125 0.875 4.6015625 C0 2 0 2 0 0 Z " fill="#39AFCA" transform="translate(648,294)"/>
<path d="M0 0 C3.96 0 7.92 0 12 0 C12 0.99 12 1.98 12 3 C8.04 3 4.08 3 0 3 C0 2.01 0 1.02 0 0 Z " fill="#666667" transform="translate(428,744)"/>
<path d="M0 0 C1.2065625 0.0309375 1.2065625 0.0309375 2.4375 0.0625 C2.4375 2.0425 2.4375 4.0225 2.4375 6.0625 C0.7875 6.0625 -0.8625 6.0625 -2.5625 6.0625 C-2.94468767 4.40635343 -3.27645102 2.73792976 -3.5625 1.0625 C-2.5625 0.0625 -2.5625 0.0625 0 0 Z " fill="#8A8A89" transform="translate(628.5625,726.9375)"/>
<path d="M0 0 C0.66 0 1.32 0 2 0 C2 1.98 2 3.96 2 6 C3.32 6.33 4.64 6.66 6 7 C5.01 7.33 4.02 7.66 3 8 C3 8.99 3 9.98 3 11 C2.01 10.67 1.02 10.34 0 10 C-1.49106457 7.01787087 -1.11941467 4.28390342 -1 1 C-0.67 0.67 -0.34 0.34 0 0 Z " fill="#757574" transform="translate(499,744)"/>
<path d="M0 0 C0.66 0 1.32 0 2 0 C2.185625 0.845625 2.37125 1.69125 2.5625 2.5625 C4.45794692 7.09509046 7.40039022 9.74687672 11 13 C8 13 8 13 6.24609375 11.50390625 C5.64925781 10.86324219 5.05242188 10.22257812 4.4375 9.5625 C1.99710571 6.9103837 1.99710571 6.9103837 -1 5 C-0.67 3.35 -0.34 1.7 0 0 Z " fill="#85C480" transform="translate(638,447)"/>
<path d="M0 0 C3.125 -0.1875 3.125 -0.1875 6 0 C5.38125 0.2475 4.7625 0.495 4.125 0.75 C1.64931313 2.20628639 1.04874998 3.37812506 0 6 C0.99 6.66 1.98 7.32 3 8 C2 9 2 9 -0.5625 9.0625 C-1.366875 9.041875 -2.17125 9.02125 -3 9 C-2.5020163 5.26512223 -2.12508244 3.18762365 0 0 Z " fill="#2C96BF" transform="translate(563,436)"/>
<path d="M0 0 C2 1.8125 2 1.8125 4 4 C4 4.99 4 5.98 4 7 C1.625 6.75 1.625 6.75 -1 6 C-2.3125 3.9375 -2.3125 3.9375 -3 2 C-2.01 1.34 -1.02 0.68 0 0 Z " fill="#33A7B7" transform="translate(507,323)"/>
<path d="M0 0 C0.99 0 1.98 0 3 0 C3.33 0.66 3.66 1.32 4 2 C6.35599235 2.46751788 6.35599235 2.46751788 9.0625 2.625 C10.44115234 2.73714844 10.44115234 2.73714844 11.84765625 2.8515625 C12.55792969 2.90054688 13.26820313 2.94953125 14 3 C14 3.33 14 3.66 14 4 C12.08496326 4.22281874 10.16783494 4.42771076 8.25 4.625 C7.18265625 4.74101563 6.1153125 4.85703125 5.015625 4.9765625 C1.96207601 5.00029475 0.53837579 4.61420985 -2 3 C-1.34 2.01 -0.68 1.02 0 0 Z " fill="#7C7D7C" transform="translate(642,736)"/>
<path d="M0 0 C0.33 0.99 0.66 1.98 1 3 C0.07421875 4.82421875 0.07421875 4.82421875 -1.3125 6.6875 C-1.76238281 7.31011719 -2.21226562 7.93273437 -2.67578125 8.57421875 C-3.11277344 9.04472656 -3.54976562 9.51523437 -4 10 C-4.66 10 -5.32 10 -6 10 C-4.34832443 6.4213696 -2.21713508 3.25179812 0 0 Z M-7 10 C-7 10.99 -7 11.98 -7 13 C-7.99 13 -8.98 13 -10 13 C-9.01 12.01 -8.02 11.02 -7 10 Z " fill="#6EC06E" transform="translate(606,507)"/>
<path d="M0 0 C1.32 0.66 2.64 1.32 4 2 C4 2.99 4 3.98 4 5 C2.68 5.33 1.36 5.66 0 6 C-0.66 4.68 -1.32 3.36 -2 2 C-1.34 1.34 -0.68 0.68 0 0 Z " fill="#3797BC" transform="translate(435,327)"/>
<path d="M0 0 C2.31 0.66 4.62 1.32 7 2 C7 3.98 7 5.96 7 8 C2.60841671 6.5361389 2.12052567 4.02168662 0 0 Z " fill="#92CF5E" transform="translate(639,279)"/>
<path d="M0 0 C1.31223496 3.93670488 0.24296256 6.12488144 -1 10 C-1.66 10 -2.32 10 -3 10 C-3 7.03 -3 4.06 -3 1 C-2.01 0.67 -1.02 0.34 0 0 Z " fill="#44A896" transform="translate(511,338)"/>
<path d="M0 0 C1.32 0.33 2.64 0.66 4 1 C4 1.66 4 2.32 4 3 C-1.03733166 4.5111995 -5.88171027 3.64599773 -11 3 C-11 2.67 -11 2.34 -11 2 C-5.555 1.505 -5.555 1.505 0 1 C0 0.67 0 0.34 0 0 Z " fill="#808283" transform="translate(598,737)"/>
<path d="M0 0 C0.66 0.66 1.32 1.32 2 2 C1.625 4.625 1.625 4.625 1 7 C0.01 7.33 -0.98 7.66 -2 8 C-2.33 6.68 -2.66 5.36 -3 4 C-2.01 4 -1.02 4 0 4 C0 2.68 0 1.36 0 0 Z " fill="#737775" transform="translate(367,736)"/>
<path d="M0 0 C3.625 0.375 3.625 0.375 7 1 C7 1.66 7 2.32 7 3 C4.03 2.67 1.06 2.34 -2 2 C-1.34 1.34 -0.68 0.68 0 0 Z " fill="#616262" transform="translate(463,736)"/>
<path d="M0 0 C0.97608217 2.92824652 1.08226668 4.95613276 1 8 C0.01 8 -0.98 8 -2 8 C-1.125 1.125 -1.125 1.125 0 0 Z " fill="#626261" transform="translate(502,743)"/>
<path d="M0 0 C0.33 1.32 0.66 2.64 1 4 C1.66 4 2.32 4 3 4 C2.38722388 6.96175123 1.74627478 8.38058783 0 11 C0 7.37 0 3.74 0 0 Z " fill="#35378F" transform="translate(404,495)"/>
<path d="M0 0 C0.66 1.32 1.32 2.64 2 4 C1.01 4.495 1.01 4.495 0 5 C-0.66 4.67 -1.32 4.34 -2 4 C-1.34 2.68 -0.68 1.36 0 0 Z M-5 4 C-4.01 4.33 -3.02 4.66 -2 5 C-2.99 5.33 -3.98 5.66 -5 6 C-5 5.34 -5 4.68 -5 4 Z " fill="#2687B7" transform="translate(410,322)"/>
<path d="M0 0 C0.66 0.66 1.32 1.32 2 2 C1.75 4.0625 1.75 4.0625 1 6 C0.01 6.495 0.01 6.495 -1 7 C-1.625 5.1875 -1.625 5.1875 -2 3 C-1.34 2.01 -0.68 1.02 0 0 Z " fill="#696A6A" transform="translate(385,738)"/>
<path d="M0 0 C3.63 0 7.26 0 11 0 C11 0.33 11 0.66 11 1 C10.07767578 1.07347656 10.07767578 1.07347656 9.13671875 1.1484375 C8.32847656 1.22320312 7.52023437 1.29796875 6.6875 1.375 C5.48673828 1.47941406 5.48673828 1.47941406 4.26171875 1.5859375 C1.72775559 1.89564426 1.72775559 1.89564426 -1 4 C-0.67 2.68 -0.34 1.36 0 0 Z " fill="#66BA5B" transform="translate(617,492)"/>
<path d="M0 0 C2.04119788 1.61594832 4.04072937 3.2856382 6 5 C6 5.66 6 6.32 6 7 C3.5625 6.3125 3.5625 6.3125 1 5 C0.1875 2.375 0.1875 2.375 0 0 Z " fill="#45A7D1" transform="translate(618,443)"/>
<path d="M0 0 C2.475 0.495 2.475 0.495 5 1 C4.67 1.99 4.34 2.98 4 4 C2.68 3.67 1.36 3.34 0 3 C0 2.01 0 1.02 0 0 Z " fill="#E4F3F3" transform="translate(534,332)"/>
</svg>
