<svg width="249" height="66" viewBox="0 0 249 66" fill="none" xmlns="http://www.w3.org/2000/svg">
<rect y="6" width="2.87273" height="26.1429" fill="#313131"/>
<rect x="33.7545" y="28.974" width="3.16883" height="30.8818" transform="rotate(90 33.7545 28.974)" fill="#313131"/>
<rect x="36.6273" y="32.1428" width="2.87273" height="26.1429" transform="rotate(180 36.6273 32.1428)" fill="#313131"/>
<rect x="36.6272" y="65" width="2.87273" height="26.1429" transform="rotate(180 36.6272 65)" fill="#313131"/>
<rect x="2.87268" y="42.026" width="3.16883" height="30.8818" transform="rotate(-90 2.87268 42.026)" fill="#313131"/>
<rect y="38.8572" width="2.87273" height="26.1429" fill="#313131"/>
<rect x="46" y="5" width="3" height="60" fill="#9D9D9D"/>
<rect x="79.0364" y="62" width="3.16883" height="33.0364" transform="rotate(90 79.0364 62)" fill="#9D9D9D"/>
<path d="M86.9176 23V5.54545H89.5511V13.1307H98.2528V5.54545H100.895V23H98.2528V15.3892H89.5511V23H86.9176ZM104.526 27.9091V9.90909H107.014V12.0312H107.227C107.375 11.7585 107.588 11.4432 107.866 11.0852C108.145 10.7273 108.531 10.4148 109.026 10.1477C109.52 9.875 110.173 9.73864 110.986 9.73864C112.043 9.73864 112.986 10.0057 113.815 10.5398C114.645 11.0739 115.295 11.8437 115.767 12.8494C116.244 13.8551 116.483 15.0653 116.483 16.4801C116.483 17.8949 116.247 19.108 115.776 20.1193C115.304 21.125 114.656 21.9006 113.832 22.446C113.009 22.9858 112.068 23.2557 111.011 23.2557C110.216 23.2557 109.565 23.1222 109.06 22.8551C108.56 22.5881 108.168 22.2756 107.884 21.9176C107.599 21.5597 107.381 21.2415 107.227 20.9631H107.074V27.9091H104.526ZM107.023 16.4545C107.023 17.375 107.156 18.1818 107.423 18.875C107.69 19.5682 108.077 20.1108 108.582 20.5028C109.088 20.8892 109.707 21.0824 110.44 21.0824C111.202 21.0824 111.838 20.8807 112.349 20.4773C112.861 20.0682 113.247 19.5142 113.509 18.8153C113.776 18.1165 113.909 17.3295 113.909 16.4545C113.909 15.5909 113.778 14.8153 113.517 14.1278C113.261 13.4403 112.875 12.8977 112.358 12.5C111.847 12.1023 111.207 11.9034 110.44 11.9034C109.702 11.9034 109.077 12.0937 108.565 12.4744C108.06 12.8551 107.676 13.3864 107.415 14.0682C107.153 14.75 107.023 15.5455 107.023 16.4545ZM119.543 23V5.54545H122.176V20.733H130.085V23H119.543ZM136.695 23.2898C135.865 23.2898 135.115 23.1364 134.445 22.8295C133.774 22.517 133.243 22.0653 132.851 21.4744C132.464 20.8835 132.271 20.1591 132.271 19.3011C132.271 18.5625 132.413 17.9545 132.697 17.4773C132.982 17 133.365 16.6222 133.848 16.3438C134.331 16.0653 134.871 15.8551 135.467 15.7131C136.064 15.571 136.672 15.4631 137.291 15.3892C138.075 15.2983 138.712 15.2244 139.2 15.1676C139.689 15.1051 140.044 15.0057 140.266 14.8693C140.487 14.733 140.598 14.5114 140.598 14.2045V14.1449C140.598 13.4006 140.388 12.8239 139.967 12.4148C139.553 12.0057 138.933 11.8011 138.109 11.8011C137.251 11.8011 136.575 11.9915 136.081 12.3722C135.592 12.7472 135.254 13.1648 135.067 13.625L132.672 13.0795C132.956 12.2841 133.371 11.642 133.916 11.1534C134.467 10.6591 135.101 10.3011 135.817 10.0795C136.533 9.85227 137.286 9.73864 138.075 9.73864C138.598 9.73864 139.152 9.80114 139.737 9.92614C140.328 10.0455 140.879 10.267 141.391 10.5909C141.908 10.9148 142.331 11.3778 142.661 11.9801C142.99 12.5767 143.155 13.3523 143.155 14.3068V23H140.666V21.2102H140.564C140.399 21.5398 140.152 21.8636 139.822 22.1818C139.493 22.5 139.07 22.7642 138.553 22.9744C138.036 23.1847 137.416 23.2898 136.695 23.2898ZM137.249 21.2443C137.953 21.2443 138.555 21.1051 139.055 20.8267C139.561 20.5483 139.945 20.1847 140.206 19.7358C140.473 19.2812 140.607 18.7955 140.607 18.2784V16.5909C140.516 16.6818 140.339 16.767 140.078 16.8466C139.822 16.9205 139.53 16.9858 139.2 17.0426C138.871 17.0937 138.55 17.142 138.237 17.1875C137.925 17.2273 137.663 17.2614 137.453 17.2898C136.959 17.3523 136.507 17.4574 136.098 17.6051C135.695 17.7528 135.371 17.9659 135.126 18.2443C134.888 18.517 134.768 18.8807 134.768 19.3352C134.768 19.9659 135.001 20.4432 135.467 20.767C135.933 21.0852 136.527 21.2443 137.249 21.2443ZM146.549 27.9091V9.90909H149.038V12.0312H149.251C149.398 11.7585 149.612 11.4432 149.89 11.0852C150.168 10.7273 150.555 10.4148 151.049 10.1477C151.543 9.875 152.197 9.73864 153.009 9.73864C154.066 9.73864 155.009 10.0057 155.839 10.5398C156.668 11.0739 157.319 11.8437 157.79 12.8494C158.268 13.8551 158.506 15.0653 158.506 16.4801C158.506 17.8949 158.271 19.108 157.799 20.1193C157.327 21.125 156.68 21.9006 155.856 22.446C155.032 22.9858 154.092 23.2557 153.035 23.2557C152.239 23.2557 151.589 23.1222 151.083 22.8551C150.583 22.5881 150.191 22.2756 149.907 21.9176C149.623 21.5597 149.404 21.2415 149.251 20.9631H149.097V27.9091H146.549ZM149.046 16.4545C149.046 17.375 149.18 18.1818 149.447 18.875C149.714 19.5682 150.1 20.1108 150.606 20.5028C151.112 20.8892 151.731 21.0824 152.464 21.0824C153.225 21.0824 153.862 20.8807 154.373 20.4773C154.884 20.0682 155.271 19.5142 155.532 18.8153C155.799 18.1165 155.933 17.3295 155.933 16.4545C155.933 15.5909 155.802 14.8153 155.54 14.1278C155.285 13.4403 154.898 12.8977 154.381 12.5C153.87 12.1023 153.231 11.9034 152.464 11.9034C151.725 11.9034 151.1 12.0937 150.589 12.4744C150.083 12.8551 149.7 13.3864 149.438 14.0682C149.177 14.75 149.046 15.5455 149.046 16.4545Z" fill="#313131"/>
<path d="M178.194 9.90909C178.097 8.9375 177.668 8.16477 176.907 7.59091C176.146 7.01705 175.188 6.73011 174.035 6.73011C173.222 6.73011 172.506 6.86932 171.887 7.14773C171.273 7.42614 170.79 7.8125 170.438 8.30682C170.092 8.79545 169.918 9.35227 169.918 9.97727C169.918 10.4375 170.018 10.8409 170.217 11.1875C170.415 11.5341 170.683 11.8324 171.018 12.0824C171.359 12.3267 171.734 12.5369 172.143 12.7131C172.558 12.8892 172.975 13.0369 173.396 13.1562L175.237 13.6847C175.793 13.8381 176.35 14.0341 176.907 14.2727C177.464 14.5114 177.972 14.8125 178.433 15.1761C178.898 15.5341 179.271 15.9744 179.549 16.4972C179.833 17.0142 179.975 17.6364 179.975 18.3636C179.975 19.2955 179.734 20.1335 179.251 20.8778C178.768 21.6222 178.075 22.2131 177.171 22.6506C176.268 23.0824 175.185 23.2983 173.924 23.2983C172.737 23.2983 171.705 23.1023 170.83 22.7102C169.955 22.3125 169.268 21.7642 168.768 21.0653C168.268 20.3665 167.987 19.5568 167.924 18.6364H169.56C169.617 19.3239 169.844 19.9062 170.242 20.3835C170.64 20.8608 171.157 21.2244 171.793 21.4744C172.43 21.7187 173.14 21.8409 173.924 21.8409C174.793 21.8409 175.566 21.696 176.242 21.4062C176.924 21.1108 177.458 20.7017 177.844 20.179C178.237 19.6506 178.433 19.0369 178.433 18.3381C178.433 17.7472 178.279 17.2528 177.972 16.8551C177.665 16.4517 177.237 16.1136 176.685 15.8409C176.14 15.5682 175.506 15.3267 174.785 15.1165L172.697 14.5028C171.327 14.0937 170.265 13.5284 169.509 12.8068C168.754 12.0852 168.376 11.1648 168.376 10.0455C168.376 9.10795 168.626 8.28409 169.126 7.57386C169.631 6.85795 170.313 6.30114 171.171 5.90341C172.035 5.5 173.004 5.29829 174.077 5.29829C175.163 5.29829 176.123 5.49716 176.958 5.89489C177.793 6.29261 178.455 6.84091 178.944 7.53977C179.438 8.23295 179.702 9.02273 179.737 9.90909H178.194ZM185.012 14.8182V23H183.495V5.54545H185.012V11.9631H185.148C185.455 11.2869 185.93 10.7472 186.572 10.3438C187.219 9.94034 188.038 9.73864 189.026 9.73864C189.913 9.73864 190.691 9.92045 191.362 10.2841C192.032 10.6477 192.555 11.1847 192.93 11.8949C193.305 12.6051 193.492 13.4801 193.492 14.5199V23H191.967V14.6136C191.967 13.5341 191.665 12.6847 191.063 12.0653C190.467 11.4403 189.66 11.1278 188.643 11.1278C187.944 11.1278 187.322 11.2756 186.776 11.571C186.231 11.8665 185.799 12.2926 185.481 12.8494C185.168 13.4006 185.012 14.0568 185.012 14.8182ZM202.575 23.2727C201.445 23.2727 200.445 22.9858 199.575 22.4119C198.712 21.8381 198.036 21.0455 197.547 20.0341C197.058 19.017 196.814 17.8437 196.814 16.5142C196.814 15.1733 197.058 13.9943 197.547 12.9773C198.036 11.9545 198.712 11.1591 199.575 10.5909C200.445 10.017 201.445 9.73011 202.575 9.73011C203.706 9.73011 204.703 10.017 205.567 10.5909C206.43 11.1648 207.107 11.9602 207.595 12.9773C208.089 13.9943 208.337 15.1733 208.337 16.5142C208.337 17.8437 208.092 19.017 207.604 20.0341C207.115 21.0455 206.436 21.8381 205.567 22.4119C204.703 22.9858 203.706 23.2727 202.575 23.2727ZM202.575 21.8835C203.484 21.8835 204.254 21.6392 204.885 21.1506C205.516 20.6619 205.993 20.0114 206.317 19.1989C206.646 18.3864 206.811 17.4915 206.811 16.5142C206.811 15.5369 206.646 14.6392 206.317 13.821C205.993 13.0028 205.516 12.3466 204.885 11.8523C204.254 11.358 203.484 11.1108 202.575 11.1108C201.672 11.1108 200.902 11.358 200.266 11.8523C199.635 12.3466 199.155 13.0028 198.825 13.821C198.501 14.6392 198.339 15.5369 198.339 16.5142C198.339 17.4915 198.501 18.3864 198.825 19.1989C199.155 20.0114 199.635 20.6619 200.266 21.1506C200.896 21.6392 201.666 21.8835 202.575 21.8835ZM211.667 27.9091V9.90909H213.141V12.4062H213.32C213.502 12.0142 213.752 11.6136 214.07 11.2045C214.388 10.7898 214.809 10.4403 215.332 10.1562C215.86 9.87216 216.525 9.73011 217.326 9.73011C218.406 9.73011 219.349 10.0142 220.156 10.5824C220.968 11.1449 221.599 11.9347 222.048 12.9517C222.502 13.9631 222.729 15.142 222.729 16.4886C222.729 17.8409 222.502 19.0256 222.048 20.0426C221.599 21.0597 220.968 21.8523 220.156 22.4205C219.349 22.9886 218.411 23.2727 217.343 23.2727C216.553 23.2727 215.891 23.1307 215.357 22.8466C214.829 22.5625 214.4 22.2131 214.07 21.7983C213.746 21.3778 213.496 20.9687 213.32 20.571H213.184V27.9091H211.667ZM213.167 16.4631C213.167 17.5199 213.323 18.4574 213.636 19.2756C213.954 20.0881 214.408 20.7273 214.999 21.1932C215.596 21.6534 216.317 21.8835 217.164 21.8835C218.033 21.8835 218.766 21.6449 219.363 21.1676C219.965 20.6847 220.423 20.0341 220.735 19.2159C221.053 18.3977 221.212 17.4801 221.212 16.4631C221.212 15.4574 221.056 14.5511 220.744 13.7443C220.437 12.9375 219.982 12.2983 219.38 11.8267C218.778 11.3494 218.039 11.1108 217.164 11.1108C216.312 11.1108 215.587 11.3409 214.991 11.8011C214.394 12.2557 213.94 12.8864 213.627 13.6932C213.32 14.4943 213.167 15.4176 213.167 16.4631Z" fill="#9D9D9D"/>
<path d="M68.7244 39.2628V38.0909H76.9062V39.2628H73.4759V49H72.1548V39.2628H68.7244ZM78.945 49V38.0909H85.5289V39.2628H80.2661V42.9489H85.1879V44.1207H80.2661V47.8281H85.6141V49H78.945ZM96.6883 41.5H95.3673C95.2892 41.12 95.1524 40.7862 94.9571 40.4986C94.7654 40.2109 94.531 39.9695 94.254 39.7741C93.9806 39.5753 93.6769 39.4261 93.3431 39.3267C93.0093 39.2273 92.6613 39.1776 92.2991 39.1776C91.6386 39.1776 91.0402 39.3445 90.504 39.6783C89.9713 40.0121 89.547 40.5039 89.2309 41.1538C88.9184 41.8036 88.7622 42.6009 88.7622 43.5455C88.7622 44.4901 88.9184 45.2873 89.2309 45.9371C89.547 46.587 89.9713 47.0788 90.504 47.4126C91.0402 47.7464 91.6386 47.9134 92.2991 47.9134C92.6613 47.9134 93.0093 47.8636 93.3431 47.7642C93.6769 47.6648 93.9806 47.5174 94.254 47.3221C94.531 47.1232 94.7654 46.88 94.9571 46.5923C95.1524 46.3011 95.2892 45.9673 95.3673 45.5909H96.6883C96.5889 46.1484 96.4078 46.6474 96.145 47.0877C95.8822 47.5281 95.5555 47.9027 95.1649 48.2116C94.7742 48.517 94.3357 48.7496 93.8492 48.9094C93.3662 49.0692 92.8495 49.1491 92.2991 49.1491C91.3687 49.1491 90.5413 48.9219 89.8169 48.4673C89.0924 48.0128 88.5225 47.3665 88.107 46.5284C87.6915 45.6903 87.4838 44.696 87.4838 43.5455C87.4838 42.3949 87.6915 41.4006 88.107 40.5625C88.5225 39.7244 89.0924 39.0781 89.8169 38.6236C90.5413 38.169 91.3687 37.9418 92.2991 37.9418C92.8495 37.9418 93.3662 38.0217 93.8492 38.1815C94.3357 38.3413 94.7742 38.5756 95.1649 38.8846C95.5555 39.19 95.8822 39.5629 96.145 40.0032C96.4078 40.44 96.5889 40.9389 96.6883 41.5ZM98.823 49V38.0909H100.144V42.9489H105.961V38.0909H107.282V49H105.961V44.1207H100.144V49H98.823ZM118.577 38.0909V49H117.299L111.354 40.4347H111.248V49H109.926V38.0909H111.205L117.171 46.6776H117.277V38.0909H118.577ZM130.425 43.5455C130.425 44.696 130.217 45.6903 129.802 46.5284C129.386 47.3665 128.816 48.0128 128.092 48.4673C127.367 48.9219 126.54 49.1491 125.61 49.1491C124.679 49.1491 123.852 48.9219 123.127 48.4673C122.403 48.0128 121.833 47.3665 121.418 46.5284C121.002 45.6903 120.794 44.696 120.794 43.5455C120.794 42.3949 121.002 41.4006 121.418 40.5625C121.833 39.7244 122.403 39.0781 123.127 38.6236C123.852 38.169 124.679 37.9418 125.61 37.9418C126.54 37.9418 127.367 38.169 128.092 38.6236C128.816 39.0781 129.386 39.7244 129.802 40.5625C130.217 41.4006 130.425 42.3949 130.425 43.5455ZM129.147 43.5455C129.147 42.6009 128.989 41.8036 128.672 41.1538C128.36 40.5039 127.936 40.0121 127.399 39.6783C126.867 39.3445 126.27 39.1776 125.61 39.1776C124.949 39.1776 124.351 39.3445 123.815 39.6783C123.282 40.0121 122.858 40.5039 122.541 41.1538C122.229 41.8036 122.073 42.6009 122.073 43.5455C122.073 44.4901 122.229 45.2873 122.541 45.9371C122.858 46.587 123.282 47.0788 123.815 47.4126C124.351 47.7464 124.949 47.9134 125.61 47.9134C126.27 47.9134 126.867 47.7464 127.399 47.4126C127.936 47.0788 128.36 46.587 128.672 45.9371C128.989 45.2873 129.147 44.4901 129.147 43.5455ZM132.646 49V38.0909H133.967V47.8281H139.038V49H132.646ZM149.863 43.5455C149.863 44.696 149.656 45.6903 149.24 46.5284C148.825 47.3665 148.255 48.0128 147.53 48.4673C146.806 48.9219 145.979 49.1491 145.048 49.1491C144.118 49.1491 143.29 48.9219 142.566 48.4673C141.841 48.0128 141.271 47.3665 140.856 46.5284C140.441 45.6903 140.233 44.696 140.233 43.5455C140.233 42.3949 140.441 41.4006 140.856 40.5625C141.271 39.7244 141.841 39.0781 142.566 38.6236C143.29 38.169 144.118 37.9418 145.048 37.9418C145.979 37.9418 146.806 38.169 147.53 38.6236C148.255 39.0781 148.825 39.7244 149.24 40.5625C149.656 41.4006 149.863 42.3949 149.863 43.5455ZM148.585 43.5455C148.585 42.6009 148.427 41.8036 148.111 41.1538C147.798 40.5039 147.374 40.0121 146.838 39.6783C146.305 39.3445 145.709 39.1776 145.048 39.1776C144.388 39.1776 143.789 39.3445 143.253 39.6783C142.72 40.0121 142.296 40.5039 141.98 41.1538C141.667 41.8036 141.511 42.6009 141.511 43.5455C141.511 44.4901 141.667 45.2873 141.98 45.9371C142.296 46.587 142.72 47.0788 143.253 47.4126C143.789 47.7464 144.388 47.9134 145.048 47.9134C145.709 47.9134 146.305 47.7464 146.838 47.4126C147.374 47.0788 147.798 46.587 148.111 45.9371C148.427 45.2873 148.585 44.4901 148.585 43.5455ZM159.542 41.5C159.425 41.1413 159.27 40.82 159.079 40.5359C158.89 40.2482 158.665 40.0032 158.402 39.8008C158.143 39.5984 157.848 39.4439 157.518 39.3374C157.188 39.2308 156.825 39.1776 156.431 39.1776C155.785 39.1776 155.197 39.3445 154.668 39.6783C154.139 40.0121 153.718 40.5039 153.406 41.1538C153.093 41.8036 152.937 42.6009 152.937 43.5455C152.937 44.4901 153.095 45.2873 153.411 45.9371C153.727 46.587 154.155 47.0788 154.695 47.4126C155.235 47.7464 155.842 47.9134 156.517 47.9134C157.142 47.9134 157.692 47.7802 158.168 47.5138C158.647 47.244 159.02 46.864 159.286 46.3739C159.556 45.8803 159.691 45.2997 159.691 44.6321L160.096 44.7173H156.815V43.5455H160.97V44.7173C160.97 45.6158 160.778 46.397 160.394 47.0611C160.014 47.7251 159.489 48.2401 158.818 48.6058C158.15 48.968 157.383 49.1491 156.517 49.1491C155.551 49.1491 154.702 48.9219 153.97 48.4673C153.242 48.0128 152.674 47.3665 152.266 46.5284C151.861 45.6903 151.659 44.696 151.659 43.5455C151.659 42.6825 151.774 41.9066 152.005 41.2177C152.239 40.5252 152.569 39.9357 152.996 39.4492C153.422 38.9627 153.926 38.5898 154.508 38.3306C155.091 38.0714 155.732 37.9418 156.431 37.9418C157.007 37.9418 157.543 38.0288 158.04 38.2028C158.541 38.3732 158.986 38.6165 159.377 38.9325C159.771 39.245 160.1 39.6197 160.362 40.0565C160.625 40.4897 160.806 40.9709 160.906 41.5H159.542ZM161.958 38.0909H163.471L166.496 43.1832H166.624L169.65 38.0909H171.162L167.221 44.5043V49H165.9V44.5043L161.958 38.0909ZM178.752 34.5753V52.5156H177.686V34.5753H178.752ZM189.582 49H186.216V38.0909H189.731C190.789 38.0909 191.695 38.3093 192.448 38.7461C193.201 39.1793 193.778 39.8026 194.179 40.6158C194.58 41.4254 194.781 42.3949 194.781 43.5241C194.781 44.6605 194.578 45.6388 194.174 46.4592C193.769 47.2759 193.179 47.9045 192.405 48.3448C191.631 48.7816 190.69 49 189.582 49ZM187.537 47.8281H189.497C190.399 47.8281 191.146 47.6541 191.739 47.3061C192.332 46.9581 192.775 46.4627 193.066 45.82C193.357 45.1772 193.502 44.4119 193.502 43.5241C193.502 42.6435 193.359 41.8853 193.071 41.2496C192.783 40.6104 192.354 40.1204 191.782 39.7795C191.21 39.435 190.498 39.2628 189.646 39.2628H187.537V47.8281ZM196.997 49V38.0909H203.581V39.2628H198.318V42.9489H203.24V44.1207H198.318V47.8281H203.666V49H196.997ZM206.409 38.0909L209.648 47.2741H209.776L213.014 38.0909H214.399L210.393 49H209.03L205.024 38.0909H206.409ZM217.419 38.0909V49H216.098V38.0909H217.419ZM228.847 41.5H227.525C227.447 41.12 227.311 40.7862 227.115 40.4986C226.924 40.2109 226.689 39.9695 226.412 39.7741C226.139 39.5753 225.835 39.4261 225.501 39.3267C225.168 39.2273 224.82 39.1776 224.457 39.1776C223.797 39.1776 223.198 39.3445 222.662 39.6783C222.13 40.0121 221.705 40.5039 221.389 41.1538C221.077 41.8036 220.92 42.6009 220.92 43.5455C220.92 44.4901 221.077 45.2873 221.389 45.9371C221.705 46.587 222.13 47.0788 222.662 47.4126C223.198 47.7464 223.797 47.9134 224.457 47.9134C224.82 47.9134 225.168 47.8636 225.501 47.7642C225.835 47.6648 226.139 47.5174 226.412 47.3221C226.689 47.1232 226.924 46.88 227.115 46.5923C227.311 46.3011 227.447 45.9673 227.525 45.5909H228.847C228.747 46.1484 228.566 46.6474 228.303 47.0877C228.04 47.5281 227.714 47.9027 227.323 48.2116C226.932 48.517 226.494 48.7496 226.007 48.9094C225.524 49.0692 225.008 49.1491 224.457 49.1491C223.527 49.1491 222.699 48.9219 221.975 48.4673C221.251 48.0128 220.681 47.3665 220.265 46.5284C219.85 45.6903 219.642 44.696 219.642 43.5455C219.642 42.3949 219.85 41.4006 220.265 40.5625C220.681 39.7244 221.251 39.0781 221.975 38.6236C222.699 38.169 223.527 37.9418 224.457 37.9418C225.008 37.9418 225.524 38.0217 226.007 38.1815C226.494 38.3413 226.932 38.5756 227.323 38.8846C227.714 39.19 228.04 39.5629 228.303 40.0032C228.566 40.44 228.747 40.9389 228.847 41.5ZM230.981 49V38.0909H237.565V39.2628H232.302V42.9489H237.224V44.1207H232.302V47.8281H237.65V49H230.981ZM245.912 40.8182C245.848 40.2784 245.589 39.8594 245.134 39.5611C244.68 39.2628 244.122 39.1136 243.462 39.1136C242.979 39.1136 242.556 39.1918 242.194 39.348C241.835 39.5043 241.555 39.7191 241.352 39.9925C241.153 40.266 241.054 40.5767 241.054 40.9247C241.054 41.2159 241.123 41.4663 241.262 41.6758C241.404 41.8817 241.585 42.054 241.805 42.1925C242.025 42.3274 242.256 42.4393 242.498 42.5281C242.739 42.6133 242.961 42.6825 243.163 42.7358L244.271 43.0341C244.555 43.1087 244.871 43.2116 245.219 43.343C245.571 43.4744 245.907 43.6538 246.226 43.881C246.549 44.1048 246.816 44.3924 247.025 44.744C247.235 45.0955 247.339 45.527 247.339 46.0384C247.339 46.6278 247.185 47.1605 246.876 47.6364C246.571 48.1122 246.123 48.4904 245.534 48.771C244.948 49.0515 244.236 49.1918 243.398 49.1918C242.616 49.1918 241.94 49.0657 241.368 48.8136C240.8 48.5614 240.353 48.2099 240.026 47.7589C239.703 47.3079 239.52 46.7841 239.477 46.1875H240.841C240.876 46.5994 241.015 46.9403 241.256 47.2102C241.501 47.4766 241.81 47.6754 242.183 47.8068C242.56 47.9347 242.964 47.9986 243.398 47.9986C243.902 47.9986 244.355 47.9169 244.756 47.7536C245.157 47.5866 245.475 47.3558 245.71 47.0611C245.944 46.7628 246.061 46.4148 246.061 46.017C246.061 45.6548 245.96 45.3601 245.757 45.1328C245.555 44.9055 245.289 44.7209 244.958 44.5788C244.628 44.4368 244.271 44.3125 243.888 44.206L242.545 43.8224C241.693 43.5774 241.018 43.2276 240.521 42.7731C240.024 42.3185 239.776 41.7237 239.776 40.9886C239.776 40.3778 239.941 39.8452 240.271 39.3906C240.605 38.9325 241.052 38.5774 241.613 38.3253C242.178 38.0696 242.808 37.9418 243.504 37.9418C244.207 37.9418 244.832 38.0678 245.379 38.32C245.926 38.5685 246.359 38.9094 246.679 39.3427C247.002 39.7759 247.173 40.2678 247.19 40.8182H245.912Z" fill="#9D9D9D"/>
</svg>
